<svg width="380" height="380" viewBox="0 0 380 380" fill="none" xmlns="http://www.w3.org/2000/svg">
<rect x="173.248" y="222.471" width="70" height="24" rx="4" transform="rotate(-4 173.248 222.471)" fill="black"/>
<path fill-rule="evenodd" clip-rule="evenodd" d="M236.822 218.025L179.504 222.033L181.344 229.038C182.077 231.827 184.69 233.7 187.566 233.499C184.69 233.7 182.363 235.919 182.026 238.782L181.179 245.975L238.496 241.967L236.656 234.962C235.923 232.173 233.31 230.3 230.434 230.501C233.31 230.3 235.637 228.081 235.974 225.218L236.822 218.025Z" fill="white"/>
<path d="M178.067 220.845C174.411 220.582 171.323 223.61 171.581 227.296L172.6 241.866C172.857 245.552 176.337 248.12 179.921 247.351C186.865 245.86 200.142 243.217 209.737 242.546C219.333 241.875 232.849 242.645 239.933 243.155C243.589 243.418 246.677 240.39 246.419 236.704L245.4 222.134C245.143 218.448 241.663 215.88 238.079 216.649C231.135 218.14 217.858 220.783 208.263 221.454C198.667 222.125 185.151 221.355 178.067 220.845Z" stroke="black" stroke-width="4"/>
</svg>
