<svg width="380" height="380" viewBox="0 0 380 380" fill="none" xmlns="http://www.w3.org/2000/svg">
<path d="M179 205.5C171.5 206.5 159.5 216.5 149 213.5L117 180L133 216C134.167 221.833 137.5 234.9 131.5 236.5C124 238.5 124.5 217 121.5 219.5C119.1 221.5 118.667 221.5 117 221.5C118.667 226.833 122.217 238.934 131.5 257.5C146 286.5 205.606 292.907 218 291C231 289 256.5 273.5 267 253C275.601 236.207 286 201.5 271.5 201.5C257 201.5 279.5 205.5 248 201.5C216.5 182 186.5 204.5 179 205.5Z" fill="#3D5A5B" stroke="black" stroke-width="4"/>
<path d="M224.5 194L236.5 211.5C233 236.667 224.4 287.7 218 290.5" stroke="black" stroke-width="3"/>
</svg>
