<svg width="380" height="380" viewBox="0 0 380 380" fill="none" xmlns="http://www.w3.org/2000/svg">
<path d="M278.73 246.955C277.53 200.555 258.5 193.955 248 196.455L232.73 199.955C223.23 203.455 215.23 237.455 230.73 256.455C243.13 271.655 258.897 268.455 265.23 264.955H290.23V257.455C291.23 258.288 290.33 257.355 278.73 246.955Z" fill="#969595" stroke="black" stroke-width="3"/>
<path d="M156 203.5C148.4 206.3 117.5 178.333 102.5 164L105 178.5L137.5 216.5L135 222V235L131.5 261L156 270L202 285.5H224C234.333 276.667 255.9 257.2 259.5 250C269.9 228.8 265.5 202.167 262 191.5L266.5 182.5L259.5 164V169C260.333 170.833 262 175.6 262 180C262 184.4 251.667 192.833 246.5 196.5L211 180H205C192.833 186.667 163.6 200.7 156 203.5Z" fill="#C4C4C4" stroke="black" stroke-width="4"/>
<path d="M137.355 193.933L126.695 202.618C125.785 203.361 125.707 204.725 126.527 205.566L143.447 222.908C144.277 223.759 145.661 223.703 146.419 222.788L158.084 208.709C158.841 207.795 158.641 206.427 157.653 205.769L139.728 193.819C138.998 193.332 138.036 193.378 137.355 193.933Z" fill="#D2F250" stroke="#878686" stroke-width="2"/>
<path d="M259.596 186.053L262.531 189.298C262.969 189.783 263.143 190.451 262.997 191.088L261.102 199.33C260.75 200.861 258.852 201.407 257.74 200.297L251.246 193.817C250.44 193.012 250.467 191.698 251.306 190.928L256.76 185.921C257.578 185.171 258.851 185.23 259.596 186.053Z" fill="#D2F250" stroke="#878686" stroke-width="2"/>
<path d="M104 190L96.5 194.5C96.5 195.667 97.1 199.8 99.5 207C90 210.5 82 244.5 97.5 263.5C109.9 278.7 125.667 275.5 132 272H157V264.5C158 265.333 157.1 264.4 145.5 254C144.3 207.6 123 201 112.5 203.5L104 190Z" fill="#969595" stroke="black" stroke-width="3"/>
<path d="M102.649 188.52L95.2421 193.046C94.8166 193.307 94.6477 193.84 94.8462 194.298L105.668 219.235C105.86 219.678 106.342 219.92 106.812 219.81L119.649 216.815C120.314 216.66 120.631 215.9 120.274 215.318L104.022 188.85C103.734 188.38 103.119 188.233 102.649 188.52Z" fill="#C4C4C4" stroke="#222222" stroke-width="2"/>
<path d="M154.806 274.872L159.419 267.094C159.654 266.699 159.589 266.195 159.261 265.872L133.156 240.14C132.626 239.617 131.731 239.836 131.502 240.545L122.837 267.452C122.657 268.014 122.999 268.609 123.575 268.735L153.732 275.338C154.153 275.43 154.586 275.242 154.806 274.872Z" fill="#C4C4C4" stroke="#222222" stroke-width="2"/>
<path d="M85.0872 264.142L86.2332 269.95C86.3403 270.493 86.8684 270.846 87.4111 270.737L109.212 266.359C109.986 266.204 110.283 265.255 109.736 264.686L98.9998 253.517C98.6418 253.145 98.0591 253.106 97.6553 253.428L85.4448 263.167C85.1528 263.4 85.0149 263.776 85.0872 264.142Z" fill="#C4C4C4" stroke="#222222" stroke-width="2"/>
<path d="M133.185 234.707C135.569 242.663 135.504 250.486 133.52 256.688C131.534 262.895 127.67 267.378 122.51 268.924C117.35 270.471 111.658 268.852 106.585 264.76C101.517 260.672 97.1596 254.174 94.7752 246.218C92.3908 238.263 92.4564 230.439 94.4405 224.238C96.4263 218.03 100.29 213.547 105.45 212.001C110.61 210.454 116.302 212.073 121.375 216.165C126.443 220.253 130.801 226.751 133.185 234.707Z" fill="#C4C4C4" stroke="#6A6A6A" stroke-width="2"/>
<path d="M96 226.5C96 225.5 105.5 220.5 105.5 220.5" stroke="#6A6A6A" stroke-width="2"/>
<path d="M121 260C121.5 261 110.5 264.5 110.5 264" stroke="#6A6A6A" stroke-width="2"/>
<path d="M126.002 236.814C127.733 242.591 127.681 248.26 126.248 252.74C124.813 257.225 122.037 260.42 118.371 261.519C114.704 262.618 110.629 261.477 106.963 258.52C103.302 255.567 100.141 250.86 98.4098 245.084C96.6786 239.308 96.7302 233.639 98.1635 229.159C99.5985 224.673 102.374 221.479 106.041 220.38C109.707 219.281 113.783 220.422 117.448 223.379C121.109 226.332 124.27 231.038 126.002 236.814Z" fill="#6A6A6A" stroke="#6A6A6A" stroke-width="2"/>
<path d="M117.903 240.771C119.542 246.24 119.351 251.654 117.764 255.972C116.177 260.289 113.225 263.453 109.352 264.614C105.479 265.774 101.274 264.756 97.5735 262.023C93.8729 259.29 90.7363 254.874 89.0971 249.404C87.4579 243.935 87.6486 238.522 89.2358 234.204C90.8229 229.886 93.7753 226.722 97.6479 225.562C101.521 224.401 105.726 225.419 109.427 228.152C113.127 230.886 116.264 235.302 117.903 240.771Z" fill="#AFADAD" stroke="#6A6A6A" stroke-width="2"/>
<path d="M202 188.5C202 189.548 201.356 190 201 190C200.644 190 200 189.548 200 188.5C200 187.452 200.644 187 201 187C201.356 187 202 187.452 202 188.5Z" fill="white" stroke="black" stroke-width="2"/>
<circle cx="193" cy="195" r="2" fill="white" stroke="black" stroke-width="2"/>
<path d="M226 193C226 194.283 225.165 195 224.5 195C223.835 195 223 194.283 223 193C223 191.717 223.835 191 224.5 191C225.165 191 226 191.717 226 193Z" fill="white" stroke="black" stroke-width="2"/>
<path d="M219 187.5C219 188.548 218.356 189 218 189C217.644 189 217 188.548 217 187.5C217 186.452 217.644 186 218 186C218.356 186 219 186.452 219 187.5Z" fill="white" stroke="black" stroke-width="2"/>
<path d="M217 196.5C217 197.548 216.356 198 216 198C215.644 198 215 197.548 215 196.5C215 195.452 215.644 195 216 195C216.356 195 217 195.452 217 196.5Z" fill="white" stroke="black" stroke-width="2"/>
<path d="M206 196.5C206 197.548 205.356 198 205 198C204.644 198 204 197.548 204 196.5C204 195.452 204.644 195 205 195C205.356 195 206 195.452 206 196.5Z" fill="white" stroke="black" stroke-width="2"/>
<path d="M206 199L188 221V262L206 286H225L238 264.5L240 221L220 199H206Z" fill="#141414" stroke="black" stroke-width="3"/>
<path d="M216.577 207L201 225.966V261.31L216.577 282H233.019L244.269 263.466L246 225.966L228.692 207H216.577Z" fill="#6A6A6A" stroke="black" stroke-width="3"/>
<path d="M220 198.5L229 206.5" stroke="black" stroke-width="2"/>
<path d="M233.5 282.5L225.5 286.5" stroke="black" stroke-width="2"/>
<path d="M193.5 195C190.5 196.5 149 224.5 165 250.5C179.462 274 205.5 259 224.5 267" stroke="#83BE6E" stroke-width="5"/>
<path d="M223.5 192.5C234.926 195.5 261 200 261 241C261 268.593 256.473 249 231.5 266" stroke="#83BE6E" stroke-width="5"/>
<path d="M205 196.5C198.833 202.833 187.2 209.3 198 216.5C211.5 225.5 227 220 227 229" stroke="#BDDAB2" stroke-opacity="0.8" stroke-width="3"/>
<path d="M216.5 196.5C219.545 201.348 238 207 238 218C238 227.586 231 220.611 231 227.5" stroke="#BDDAB2" stroke-opacity="0.8" stroke-width="3"/>
<path d="M217.5 188C225.946 179.74 262 219.098 262 230.5C262 244 242 232.5 229.5 247" stroke="#B1EC9C" stroke-opacity="0.8" stroke-width="5"/>
<path d="M201.5 188.5C190.074 191.5 172.659 222.378 179.5 231.5C188.5 243.5 212 224 225.5 248.5" stroke="#B1EC9C" stroke-opacity="0.8" stroke-width="5"/>
<ellipse cx="227.5" cy="229.5" rx="5.5" ry="6.5" fill="#E2E2E2"/>
<ellipse cx="227.5" cy="247.5" rx="5.5" ry="6.5" fill="#E2E2E2"/>
<ellipse cx="227.5" cy="265.5" rx="5.5" ry="6.5" fill="#E2E2E2"/>
</svg>
