<svg width="380" height="380" viewBox="0 0 380 380" fill="none" xmlns="http://www.w3.org/2000/svg">
<path d="M137 205L135.651 202.572C145.404 204.981 172.641 203.985 187 202.5C201.5 201 207 196 215.5 194C232 190.118 252 197 271 194C272.167 205.667 273.8 232.9 271 244.5C261 260 249 276.5 213 286C184.2 293.6 149.333 260.333 137 244.5C140.333 243.5 147 239.2 147 230C145.5 221.5 145 212 137 205Z" fill="#579EE0"/>
<path d="M122 178L137 205C145 212 145.5 221.5 147 230C147 239.2 140.333 243.5 137 244.5M137 244.5C132 238.667 122 225.9 122 221.5M137 244.5C149.333 260.333 184.2 293.6 213 286C249 276.5 261 260 271 244.5C273.8 232.9 272.167 205.667 271 194C252 197 232 190.118 215.5 194C207 196 201.5 201 187 202.5C172.5 204 144.87 205 135.37 202.5" stroke="white" stroke-width="4"/>
<path d="M143.5 216C153 216 180.5 215.9 190.5 213.5C203 210.5 213.981 204.866 224 203.5C235 202 260.5 207.5 272 203.5" stroke="white" stroke-width="10"/>
<path d="M222 194L234.5 204.5C234.5 204.5 233 246.5 225 254.5" stroke="white" stroke-width="2"/>
</svg>
