<svg width="380" height="380" viewBox="0 0 380 380" fill="none" xmlns="http://www.w3.org/2000/svg">
<path d="M101.881 265.01L111.475 236.527" stroke="#E21F1F" stroke-width="7.56" stroke-linejoin="round"/>
<path d="M98.3906 262.631L105.775 265.463" stroke="#EFE95E" stroke-width="5.04"/>
<path d="M106.107 239.49L113.86 242.131" stroke="#EFE95E" stroke-width="2.52"/>
<path d="M132.221 258.99L110.098 238.645" stroke="#E21F1F" stroke-width="7.56" stroke-linejoin="round"/>
<path d="M128.628 261.211L134.218 255.617" stroke="#EFE95E" stroke-width="5.04"/>
<path d="M110.623 244.754L116.188 238.744" stroke="#EFE95E" stroke-width="2.52"/>
<path d="M81.9915 254.839L112.174 238.441" stroke="#E21F1F" stroke-width="8.64" stroke-linejoin="round"/>
<path d="M80.9183 250.132L84.9007 258.247" stroke="#EFE95E" stroke-width="5.76"/>
<path d="M105.374 236.75L109.814 244.99" stroke="#EFE95E" stroke-width="2.88"/>
<path d="M116.137 269.252L109.293 235.591" stroke="#E21F1F" stroke-width="8.64" stroke-linejoin="round"/>
<path d="M111.322 268.9L120.247 267.468" stroke="#EFE95E" stroke-width="5.76"/>
<path d="M105.685 241.598L114.864 239.764" stroke="#EFE95E" stroke-width="2.88"/>
<path d="M106.195 248.248L113.52 219.099" stroke="#E21F1F" stroke-width="7.56" stroke-linejoin="round"/>
<path d="M102.528 246.15L110.112 248.394" stroke="#EFE95E" stroke-width="5.04"/>
<path d="M108.402 222.475L116.338 224.498" stroke="#EFE95E" stroke-width="2.52"/>
<path d="M85.5671 239.672L114.367 220.952" stroke="#E21F1F" stroke-width="8.64" stroke-linejoin="round"/>
<path d="M84.1272 235.064L88.7352 242.84" stroke="#EFE95E" stroke-width="5.76"/>
<path d="M107.455 219.8L112.53 227.666" stroke="#EFE95E" stroke-width="2.88"/>
<path d="M120.74 251.356L111.271 218.337" stroke="#E21F1F" stroke-width="8.64" stroke-linejoin="round"/>
<path d="M115.913 251.384L124.697 249.254" stroke="#EFE95E" stroke-width="5.76"/>
<path d="M108.146 224.609L117.153 222.06" stroke="#EFE95E" stroke-width="2.88"/>
<path d="M120.606 286.589L112.863 257.547" stroke="#E21F1F" stroke-width="7.56" stroke-linejoin="round"/>
<path d="M116.382 286.534L124.102 284.815" stroke="#EFE95E" stroke-width="5.04"/>
<path d="M110.027 262.983L117.948 260.9" stroke="#EFE95E" stroke-width="2.52"/>
<path d="M98.4087 289.102L114.503 258.756" stroke="#E21F1F" stroke-width="8.64" stroke-linejoin="round"/>
<path d="M94.9131 285.772L102.716 290.334" stroke="#EFE95E" stroke-width="5.76"/>
<path d="M107.901 261.104L116.155 265.517" stroke="#EFE95E" stroke-width="2.88"/>
<path d="M134.832 282.246L110.527 257.973" stroke="#E21F1F" stroke-width="8.64" stroke-linejoin="round"/>
<path d="M130.625 284.613L137.271 278.488" stroke="#EFE95E" stroke-width="5.76"/>
<path d="M110.839 264.973L117.476 258.373" stroke="#EFE95E" stroke-width="2.88"/>
<path d="M89.2787 276.097L110.91 264.737" stroke="#E21F1F" stroke-width="6.14558" stroke-linejoin="round"/>
<path d="M88.5626 272.739L91.3135 278.55" stroke="#EFE95E" stroke-width="4.09705"/>
<path d="M106.09 263.466L109.166 269.371" stroke="#EFE95E" stroke-width="2.04853"/>
<path d="M97.2265 312.201L104.97 283.16" stroke="#E21F1F" stroke-width="7.56" stroke-linejoin="round"/>
<path d="M101.565 311.02L93.8456 309.3" stroke="#EFE95E" stroke-width="5.04"/>
<path d="M107.921 287.469L100 285.386" stroke="#EFE95E" stroke-width="2.52"/>
<path d="M118.901 307.745L102.806 277.4" stroke="#E21F1F" stroke-width="8.64" stroke-linejoin="round"/>
<path d="M123.956 304.492L116.153 309.054" stroke="#EFE95E" stroke-width="5.76"/>
<path d="M110.968 279.824L102.714 284.238" stroke="#EFE95E" stroke-width="2.88"/>
<path d="M84.5446 300.829L108.849 276.556" stroke="#E21F1F" stroke-width="8.64" stroke-linejoin="round"/>
<path d="M88.7521 303.196L82.1056 297.07" stroke="#EFE95E" stroke-width="5.76"/>
<path d="M108.537 283.556L101.9 276.956" stroke="#EFE95E" stroke-width="2.88"/>
<path d="M122.021 296.607L107.323 277.09" stroke="#E21F1F" stroke-width="6.14558" stroke-linejoin="round"/>
<path d="M124.104 293.877L119.133 297.954" stroke="#EFE95E" stroke-width="4.09705"/>
<path d="M112.224 278.001L106.919 282.024" stroke="#EFE95E" stroke-width="2.04853"/>
<path d="M52.32 282.44L53.2899 285.425L56.4286 285.425L53.8893 287.27L54.8592 290.255L52.32 288.41L49.7808 290.255L50.7507 287.27L48.2114 285.425L51.3501 285.425L52.32 282.44Z" fill="#FFE661"/>
<path d="M145.92 291.44L146.89 294.425L150.029 294.425L147.489 296.27L148.459 299.255L145.92 297.41L143.381 299.255L144.351 296.27L141.811 294.425L144.95 294.425L145.92 291.44Z" fill="#FFE661"/>
<path d="M132.24 326L133.21 328.985L136.349 328.985L133.809 330.83L134.779 333.815L132.24 331.97L129.701 333.815L130.671 330.83L128.131 328.985L131.27 328.985L132.24 326Z" fill="#FFE661"/>
<path d="M98.4 334.64L99.3699 337.625L102.509 337.625L99.9693 339.47L100.939 342.455L98.4 340.61L95.8607 342.455L96.8306 339.47L94.2914 337.625L97.4301 337.625L98.4 334.64Z" fill="#FFE661"/>
<path d="M150.24 225.92L151.21 228.905L154.349 228.905L151.809 230.75L152.779 233.735L150.24 231.89L147.701 233.735L148.671 230.75L146.131 228.905L149.27 228.905L150.24 225.92Z" fill="#FFE661"/>
<path d="M70.1399 261.92L71.3927 265.776H75.4468L72.167 268.159L73.4198 272.014L70.1399 269.631L66.8601 272.014L68.1129 268.159L64.833 265.776H68.8871L70.1399 261.92Z" fill="#FFE661"/>
</svg>
