<svg width="380" height="380" viewBox="0 0 380 380" fill="none" xmlns="http://www.w3.org/2000/svg">
<ellipse cx="115" cy="244.177" rx="21" ry="13.0078" fill="#E21F1F"/>
<path d="M111.86 231.25C108.394 232.555 101.381 247.928 111.86 257.429" stroke="#FFE661" stroke-width="0.652427"/>
<path d="M118.466 231.25C122.503 235.165 128.579 247.439 118.466 257.429" stroke="#FFE661" stroke-width="0.652427"/>
<path d="M104.684 232.881C99.2678 236.7 91.6858 246.818 104.684 255.594" stroke="#FFE661" stroke-width="0.652427"/>
<path d="M125.643 232.881C131.058 236.7 138.64 246.818 125.643 255.594" stroke="#FFE661" stroke-width="0.652427"/>
<path d="M107.946 231.21C113.328 229.987 116.713 229.905 121.769 231.21" stroke="#FFE661" stroke-width="3.26214"/>
<path d="M107.946 257.51C113.328 258.734 116.713 258.815 121.769 257.51" stroke="#FFE661" stroke-width="3.26214"/>
<rect x="112.268" y="216.408" width="5.79029" height="13.9456" rx="0.407767" stroke="#FFE661" stroke-width="0.815534"/>
<rect x="112.023" y="259.304" width="5.79029" height="13.9456" rx="0.407767" stroke="#FFE661" stroke-width="0.815534"/>
<path d="M119.539 289.683C121.496 288.378 119.118 274.229 118.303 267.827C118.303 267.827 116.429 270.185 114.796 270.11C113.269 270.041 111.615 267.827 111.615 267.827C112.39 275.004 106.491 291.64 108.937 289.683C111.995 287.237 117.093 291.314 119.539 289.683Z" fill="#E21F1F"/>
<path d="M111.616 276.594C111.126 280.019 109.87 287.498 108.761 290.01" stroke="#FFE661" stroke-width="0.815534"/>
<path d="M112.961 274.148C113.94 277.94 111.665 286.601 110.556 289.113" stroke="#FFE661" stroke-width="0.815534"/>
<path d="M117.936 276.105C118.425 279.53 118.58 287.498 119.689 290.01" stroke="#FFE661" stroke-width="0.815534"/>
<path d="M115.815 278.225C116.305 281.65 116.052 287.498 117.161 290.01" stroke="#FFE661" stroke-width="0.815534"/>
</svg>
