<svg width="380" height="380" viewBox="0 0 380 380" fill="none" xmlns="http://www.w3.org/2000/svg">
<path d="M185.5 194.5C193.333 186.667 214.3 174.1 235.5 186.5" stroke="black" stroke-width="4"/>
<path d="M120 179C131.333 196.333 164 227.3 172 206.5" stroke="black" stroke-width="4"/>
<path d="M266.5 173C273.5 177.167 290.4 185.4 280 189C269.6 192.6 260.333 190.5 257 189" stroke="black" stroke-width="4"/>
<path d="M263.689 179.112C255.239 184.341 254.132 181.291 254.635 179.112C259.162 172.575 253.126 176.207 242.563 172.575C232 168.944 237.282 183.47 228.228 189.28C220.669 194.131 235.018 200.175 232 204.532C228.983 208.89 239.545 225.595 242.563 216.153C245.581 206.711 254.635 215.427 263.689 216.153C272.743 216.88 274.252 210.343 274.252 204.532C274.252 198.722 269.725 194.364 274.252 189.28C278.779 184.196 274.252 172.575 263.689 179.112Z" fill="white" stroke="#D8AE5D"/>
<ellipse cx="252.5" cy="196" rx="9.5" ry="9" fill="#E2C55E"/>
<path d="M190.373 178.481C181.321 184.652 180.136 181.052 180.674 178.481C185.524 170.767 172.23 171.591 162.123 178.481C150.808 186.195 162.085 183.624 152.387 190.48C144.289 196.205 159.661 203.337 156.428 208.48C153.195 213.622 157.29 218.585 167.743 222.193C180.674 226.657 180.674 221.336 190.373 222.193C200.072 223.05 201.688 215.337 201.688 208.48C201.688 201.623 209.14 190.48 201.688 190.48C196.877 190.48 201.688 170.767 190.373 178.481Z" fill="white" stroke="#D8AE5D"/>
<ellipse cx="179.5" cy="198" rx="9.5" ry="9" fill="#E2C55E"/>
</svg>
