<svg width="380" height="385" viewBox="0 0 380 385" fill="none" xmlns="http://www.w3.org/2000/svg">
<path d="M189.771 359.577C189.771 359.577 189.771 359.577 191 357.999L189.771 359.577L191.493 360.918L192.679 359.087L192.679 359.086L192.681 359.083L192.69 359.069L192.731 359.007C192.742 358.99 192.755 358.97 192.769 358.948C192.803 358.897 192.847 358.831 192.9 358.752C193.05 358.527 193.275 358.194 193.57 357.769C194.158 356.918 195.023 355.701 196.118 354.246C198.312 351.331 201.416 347.481 205.071 343.718C208.737 339.944 212.898 336.317 217.198 333.793C221.514 331.259 225.777 329.949 229.733 330.482C272.171 336.204 303.402 355.001 323.674 383H50.3745C66.6742 353.658 89.8579 334.982 127.445 326.412C129.046 326.047 131.224 326.158 133.947 326.791C136.642 327.418 139.715 328.519 143.028 329.975C149.655 332.888 157.052 337.136 164.004 341.536C170.945 345.929 177.39 350.442 182.104 353.859C184.459 355.567 186.379 356.999 187.709 358.003C188.374 358.505 188.891 358.9 189.241 359.169C189.416 359.303 189.55 359.406 189.639 359.475L189.739 359.552L189.764 359.572L189.77 359.576L189.771 359.577Z" fill="{{color[0]}}" stroke="black" stroke-width="4"/>
<path d="M115.613 329.085L120.779 309.853C120.989 309.074 121.996 308.854 122.54 309.449C137.403 325.714 156.16 325.076 162.385 324.33C163.23 324.228 163.892 325.153 163.495 325.906L150.338 350.859C150.136 351.241 149.724 351.452 149.3 351.364C145.352 350.541 125.677 345.732 115.729 329.867C115.583 329.635 115.542 329.35 115.613 329.085Z" fill="{{color[1]}}" stroke="black" stroke-width="4"/>
<path d="M246.195 328.981L234.614 309.499C234.221 308.837 233.252 308.848 232.833 309.494C227.096 318.33 217.202 322.4 213.742 323.602C213.119 323.819 212.834 324.558 213.17 325.125L226.673 347.94C226.874 348.281 227.255 348.465 227.635 348.357C229.77 347.749 237.095 344.685 246.182 330.021C246.377 329.706 246.384 329.3 246.195 328.981Z" fill="{{color[1]}}" stroke="black" stroke-width="4"/>
<path d="M172.5 346.5L163.5 325L156.5 340L172.5 346.5Z" fill="black" stroke="black" stroke-width="4" stroke-linejoin="round"/>
<path d="M204 345.5L213 324L220 339L204 345.5Z" fill="black" stroke="black" stroke-width="4" stroke-linejoin="round"/>
<path d="M133.5 306L121.5 309L131.5 315.5L133.5 306Z" fill="black" stroke="black" stroke-width="4" stroke-linejoin="round"/>
<path d="M223 306L234 309L227 315.5L223 306Z" fill="black" stroke="black" stroke-width="4" stroke-linejoin="round"/>
</svg>
