<svg width="380" height="382" viewBox="0 0 380 382" fill="none" xmlns="http://www.w3.org/2000/svg">
<path d="M54.1103 363.5C50.9103 363.5 39.777 372.167 41.1103 378.5H339.11C339.11 378.5 322.61 359 314.61 352C306.61 345 292.61 352 285.11 346C277.61 340 253.61 329.5 245.61 329.5C242.111 329.5 218.111 363.171 192.11 363.5C158.678 363.923 121.611 330.906 117.11 329.5C109.11 327 84.6103 340.5 80.6103 346C76.6103 351.5 58.1103 363.5 54.1103 363.5Z" fill="{{color[0]}}" stroke="black" stroke-width="4"/>
<path d="M193.653 359.561C192.453 352.924 217.138 317.755 229.63 301C245.62 315.445 251.283 325.888 252.116 329.304C251.283 331.256 251.816 335.16 260.61 335.16C258.112 343.944 235.626 346.873 235.626 352.729C235.626 357.413 240.956 359.235 243.621 359.561L235.626 379.569C229.297 379.894 215.239 380.35 209.642 379.569C202.647 378.593 195.152 367.857 193.653 359.561Z" fill="{{color[1]}}" stroke="black" stroke-width="4"/>
<path d="M207.11 379.5C195.11 351.1 153.777 318.333 134.61 305.5C130.61 302.755 90.6105 336 99.6105 333C106.81 330.6 118.61 336.667 123.61 340C117.444 344.667 106.51 354.1 112.11 354.5C119.11 355 127.61 356 134.61 362.5C140.21 367.7 158.277 376 166.61 379.5H207.11Z" fill="{{color[1]}}" stroke="black" stroke-width="4"/>
</svg>
