<svg width="380" height="380" viewBox="0 0 380 380" fill="none" xmlns="http://www.w3.org/2000/svg">
<path d="M47.9118 61.0673C71.1607 27.2707 113.453 8.39972 129.229 17.2265L100.028 68.6908C93.4996 80.7595 108.034 98.0793 80.0764 93.2299C52.1193 88.3806 72.2352 141.818 54.6067 145.456C54.6067 145.456 36.946 111.831 30.9834 82.9403C25.0209 54.0492 39.6648 73.0559 47.9118 61.0673Z" fill="#A63D3D" stroke="black" stroke-width="4"/>
<path d="M79.0001 51.4342C85.879 73.3814 87.0001 68.9342 79.0001 81.9342C79.0001 134.934 83.0001 131.934 93.5001 154.434C101.9 172.434 206.333 122.268 257.5 94.9342C260 90.4342 261.1 75.4342 245.5 51.4342C229.9 27.4342 175.167 14.5 142.5 9C131 6.33334 68.5001 17.9342 79.0001 51.4342Z" fill="#C03D3D" stroke="black" stroke-width="4"/>
<ellipse cx="49" cy="146.934" rx="16" ry="16.5" fill="#FFF7F7"/>
<path d="M261 63.9343C248.2 57.9343 88 93.9343 79 128.434C71 140.101 73.5 154.934 93.5 164.434C111.114 172.801 216.166 139.268 261 113.434C279.5 102.774 273.8 69.9343 261 63.9343Z" fill="#FFF4F4" stroke="black" stroke-width="4"/>
</svg>
