<svg width="380" height="380" viewBox="0 0 380 380" fill="none" xmlns="http://www.w3.org/2000/svg">
<path d="M156 253C156 253.552 155.552 254 155 254C154.448 254 154 253.552 154 253C154 252.448 154.448 252 155 252C155.552 252 156 252.448 156 253Z" fill="{{color[0]}}"/>
<path d="M208 260C208 260.552 207.552 261 207 261C206.448 261 206 260.552 206 260C206 259.448 206.448 259 207 259C207.552 259 208 259.448 208 260Z" fill="{{color[0]}}"/>
<path d="M204 267C204 267.552 203.552 268 203 268C202.448 268 202 267.552 202 267C202 266.448 202.448 266 203 266C203.552 266 204 266.448 204 267Z" fill="{{color[0]}}"/>
<path d="M224 265C224 265.552 223.552 266 223 266C222.448 266 222 265.552 222 265C222 264.448 222.448 264 223 264C223.552 264 224 264.448 224 265Z" fill="{{color[0]}}"/>
<path d="M225 255C225 255.552 224.552 256 224 256C223.448 256 223 255.552 223 255C223 254.448 223.448 254 224 254C224.552 254 225 254.448 225 255Z" fill="{{color[0]}}"/>
<path d="M245 260C245 260.552 244.552 261 244 261C243.448 261 243 260.552 243 260C243 259.448 243.448 259 244 259C244.552 259 245 259.448 245 260Z" fill="{{color[0]}}"/>
<path d="M255 246C255 246.552 254.552 247 254 247C253.448 247 253 246.552 253 246C253 245.448 253.448 245 254 245C254.552 245 255 245.448 255 246Z" fill="{{color[0]}}"/>
<path d="M146 232C146 232.552 145.552 233 145 233C144.448 233 144 232.552 144 232C144 231.448 144.448 231 145 231C145.552 231 146 231.448 146 232Z" fill="{{color[0]}}"/>
<path d="M179 248C179 248.552 178.552 249 178 249C177.448 249 177 248.552 177 248C177 247.448 177.448 247 178 247C178.552 247 179 247.448 179 248Z" fill="{{color[0]}}"/>
<path d="M176 268C176 268.552 175.552 269 175 269C174.448 269 174 268.552 174 268C174 267.448 174.448 267 175 267C175.552 267 176 267.448 176 268Z" fill="{{color[0]}}"/>
<path d="M194 272C194 272.552 193.552 273 193 273C192.448 273 192 272.552 192 272C192 271.448 192.448 271 193 271C193.552 271 194 271.448 194 272Z" fill="{{color[0]}}"/>
<path d="M228 246C228 246.552 227.552 247 227 247C226.448 247 226 246.552 226 246C226 245.448 226.448 245 227 245C227.552 245 228 245.448 228 246Z" fill="{{color[0]}}"/>
<path d="M242 250C242 250.552 241.552 251 241 251C240.448 251 240 250.552 240 250C240 249.448 240.448 249 241 249C241.552 249 242 249.448 242 250Z" fill="{{color[0]}}"/>
<path d="M234 267C234 267.552 233.552 268 233 268C232.448 268 232 267.552 232 267C232 266.448 232.448 266 233 266C233.552 266 234 266.448 234 267Z" fill="{{color[0]}}"/>
<path d="M248 236C248 236.552 247.552 237 247 237C246.448 237 246 236.552 246 236C246 235.448 246.448 235 247 235C247.552 235 248 235.448 248 236Z" fill="{{color[0]}}"/>
<path d="M155 238C155 238.552 154.552 239 154 239C153.448 239 153 238.552 153 238C153 237.448 153.448 237 154 237C154.552 237 155 237.448 155 238Z" fill="{{color[0]}}"/>
<path d="M179 238C179 238.552 178.552 239 178 239C177.448 239 177 238.552 177 238C177 237.448 177.448 237 178 237C178.552 237 179 237.448 179 238Z" fill="{{color[0]}}"/>
<path d="M179 220C179 220.552 178.552 221 178 221C177.448 221 177 220.552 177 220C177 219.448 177.448 219 178 219C178.552 219 179 219.448 179 220Z" fill="{{color[0]}}"/>
<path d="M183 274C183 274.552 182.552 275 182 275C181.448 275 181 274.552 181 274C181 273.448 181.448 273 182 273C182.552 273 183 273.448 183 274Z" fill="{{color[0]}}"/>
<path d="M210 274C210 274.552 209.552 275 209 275C208.448 275 208 274.552 208 274C208 273.448 208.448 273 209 273C209.552 273 210 273.448 210 274Z" fill="{{color[0]}}"/>
<path d="M221 274C221 274.552 220.552 275 220 275C219.448 275 219 274.552 219 274C219 273.448 219.448 273 220 273C220.552 273 221 273.448 221 274Z" fill="{{color[0]}}"/>
<path d="M238 238C238 238.552 237.552 239 237 239C236.448 239 236 238.552 236 238C236 237.448 236.448 237 237 237C237.552 237 238 237.448 238 238Z" fill="{{color[0]}}"/>
<path d="M238 220C238 220.552 237.552 221 237 221C236.448 221 236 220.552 236 220C236 219.448 236.448 219 237 219C237.552 219 238 219.448 238 220Z" fill="{{color[0]}}"/>
<path d="M258 233C258 233.552 257.552 234 257 234C256.448 234 256 233.552 256 233C256 232.448 256.448 232 257 232C257.552 232 258 232.448 258 233Z" fill="{{color[0]}}"/>
<path d="M158 225C158 225.552 157.552 226 157 226C156.448 226 156 225.552 156 225C156 224.448 156.448 224 157 224C157.552 224 158 224.448 158 225Z" fill="{{color[0]}}"/>
<path d="M168 260C168 260.552 167.552 261 167 261C166.448 261 166 260.552 166 260C166 259.448 166.448 259 167 259C167.552 259 168 259.448 168 260Z" fill="{{color[0]}}"/>
<path d="M164 267C164 267.552 163.552 268 163 268C162.448 268 162 267.552 162 267C162 266.448 162.448 266 163 266C163.552 266 164 266.448 164 267Z" fill="{{color[0]}}"/>
<path d="M204 247C204 247.552 203.552 248 203 248C202.448 248 202 247.552 202 247C202 246.448 202.448 246 203 246C203.552 246 204 246.448 204 247Z" fill="{{color[0]}}"/>
<path d="M216 249C216 249.552 215.552 250 215 250C214.448 250 214 249.552 214 249C214 248.448 214.448 248 215 248C215.552 248 216 248.448 216 249Z" fill="{{color[0]}}"/>
<path d="M202 279C202 279.552 201.552 280 201 280C200.448 280 200 279.552 200 279C200 278.448 200.448 278 201 278C201.552 278 202 278.448 202 279Z" fill="{{color[0]}}"/>
<path d="M225 228C225 228.552 224.552 229 224 229C223.448 229 223 228.552 223 228C223 227.448 223.448 227 224 227C224.552 227 225 227.448 225 228Z" fill="{{color[0]}}"/>
<path d="M225 210C225 210.552 224.552 211 224 211C223.448 211 223 210.552 223 210C223 209.448 223.448 209 224 209C224.552 209 225 209.448 225 210Z" fill="{{color[0]}}"/>
<path d="M249 225C249 225.552 248.552 226 248 226C247.448 226 247 225.552 247 225C247 224.448 247.448 224 248 224C248.552 224 249 224.448 249 225Z" fill="{{color[0]}}"/>
<path d="M256 215C256 215.552 255.552 216 255 216C254.448 216 254 215.552 254 215C254 214.448 254.448 214 255 214C255.552 214 256 214.448 256 215Z" fill="{{color[0]}}"/>
<path d="M167 234C167 234.552 166.552 235 166 235C165.448 235 165 234.552 165 234C165 233.448 165.448 233 166 233C166.552 233 167 233.448 167 234Z" fill="{{color[0]}}"/>
<path d="M167 245C167 245.552 166.552 246 166 246C165.448 246 165 245.552 165 245C165 244.448 165.448 244 166 244C166.552 244 167 244.448 167 245Z" fill="{{color[0]}}"/>
<path d="M188 230C188 230.552 187.552 231 187 231C186.448 231 186 230.552 186 230C186 229.448 186.448 229 187 229C187.552 229 188 229.448 188 230Z" fill="{{color[0]}}"/>
<path d="M188 212C188 212.552 187.552 213 187 213C186.448 213 186 212.552 186 212C186 211.448 186.448 211 187 211C187.552 211 188 211.448 188 212Z" fill="{{color[0]}}"/>
<path d="M200 226C200 226.552 199.552 227 199 227C198.448 227 198 226.552 198 226C198 225.448 198.448 225 199 225C199.552 225 200 225.448 200 226Z" fill="{{color[0]}}"/>
<path d="M212 220C212 220.552 211.552 221 211 221C210.448 221 210 220.552 210 220C210 219.448 210.448 219 211 219C211.552 219 212 219.448 212 220Z" fill="{{color[0]}}"/>
<path d="M225 220C225 220.552 224.552 221 224 221C223.448 221 223 220.552 223 220C223 219.448 223.448 219 224 219C224.552 219 225 219.448 225 220Z" fill="{{color[0]}}"/>
<path d="M238 220C238 220.552 237.552 221 237 221C236.448 221 236 220.552 236 220C236 219.448 236.448 219 237 219C237.552 219 238 219.448 238 220Z" fill="{{color[0]}}"/>
<path d="M264 220C264 220.552 263.552 221 263 221C262.448 221 262 220.552 262 220C262 219.448 262.448 219 263 219C263.552 219 264 219.448 264 220Z" fill="{{color[0]}}"/>
<path d="M186 260C186 260.552 185.552 261 185 261C184.448 261 184 260.552 184 260C184 259.448 184.448 259 185 259C185.552 259 186 259.448 186 260Z" fill="{{color[0]}}"/>
<path d="M197 254C197 254.552 196.552 255 196 255C195.448 255 195 254.552 195 254C195 253.448 195.448 253 196 253C196.552 253 197 253.448 197 254Z" fill="{{color[0]}}"/>
<path d="M193 246C193 246.552 192.552 247 192 247C191.448 247 191 246.552 191 246C191 245.448 191.448 245 192 245C192.552 245 193 245.448 193 246Z" fill="{{color[0]}}"/>
<path d="M217 237C217 237.552 216.552 238 216 238C215.448 238 215 237.552 215 237C215 236.448 215.448 236 216 236C216.552 236 217 236.448 217 237Z" fill="{{color[0]}}"/>
<path d="M168 219C168 219.552 167.552 220 167 220C166.448 220 166 219.552 166 219C166 218.448 166.448 218 167 218C167.552 218 168 218.448 168 219Z" fill="{{color[0]}}"/>
<path d="M205 235C205 235.552 204.552 236 204 236C203.448 236 203 235.552 203 235C203 234.448 203.448 234 204 234C204.552 234 205 234.448 205 235Z" fill="{{color[0]}}"/>
<path d="M205 217C205 217.552 204.552 218 204 218C203.448 218 203 217.552 203 217C203 216.448 203.448 216 204 216C204.552 216 205 216.448 205 217Z" fill="{{color[0]}}"/>
<path d="M240 231C240 231.552 239.552 232 239 232C238.448 232 238 231.552 238 231C238 230.448 238.448 230 239 230C239.552 230 240 230.448 240 231Z" fill="{{color[0]}}"/>
<path d="M240 213C240 213.552 239.552 214 239 214C238.448 214 238 213.552 238 213C238 212.448 238.448 212 239 212C239.552 212 240 212.448 240 213Z" fill="{{color[0]}}"/>
<path d="M247 215C247 215.552 246.552 216 246 216C245.448 216 245 215.552 245 215C245 214.448 245.448 214 246 214C246.552 214 247 214.448 247 215Z" fill="{{color[0]}}"/>
<path d="M262 206C262 206.552 261.552 207 261 207C260.448 207 260 206.552 260 206C260 205.448 260.448 205 261 205C261.552 205 262 205.448 262 206Z" fill="{{color[0]}}"/>
<path d="M156 253C156 253.552 155.552 254 155 254C154.448 254 154 253.552 154 253C154 252.448 154.448 252 155 252C155.552 252 156 252.448 156 253Z" stroke="{{color[0]}}"/>
<path d="M208 260C208 260.552 207.552 261 207 261C206.448 261 206 260.552 206 260C206 259.448 206.448 259 207 259C207.552 259 208 259.448 208 260Z" stroke="{{color[0]}}"/>
<path d="M204 267C204 267.552 203.552 268 203 268C202.448 268 202 267.552 202 267C202 266.448 202.448 266 203 266C203.552 266 204 266.448 204 267Z" stroke="{{color[0]}}"/>
<path d="M224 265C224 265.552 223.552 266 223 266C222.448 266 222 265.552 222 265C222 264.448 222.448 264 223 264C223.552 264 224 264.448 224 265Z" stroke="{{color[0]}}"/>
<path d="M225 255C225 255.552 224.552 256 224 256C223.448 256 223 255.552 223 255C223 254.448 223.448 254 224 254C224.552 254 225 254.448 225 255Z" stroke="{{color[0]}}"/>
<path d="M245 260C245 260.552 244.552 261 244 261C243.448 261 243 260.552 243 260C243 259.448 243.448 259 244 259C244.552 259 245 259.448 245 260Z" stroke="{{color[0]}}"/>
<path d="M255 246C255 246.552 254.552 247 254 247C253.448 247 253 246.552 253 246C253 245.448 253.448 245 254 245C254.552 245 255 245.448 255 246Z" stroke="{{color[0]}}"/>
<path d="M146 232C146 232.552 145.552 233 145 233C144.448 233 144 232.552 144 232C144 231.448 144.448 231 145 231C145.552 231 146 231.448 146 232Z" stroke="{{color[0]}}"/>
<path d="M179 248C179 248.552 178.552 249 178 249C177.448 249 177 248.552 177 248C177 247.448 177.448 247 178 247C178.552 247 179 247.448 179 248Z" stroke="{{color[0]}}"/>
<path d="M176 268C176 268.552 175.552 269 175 269C174.448 269 174 268.552 174 268C174 267.448 174.448 267 175 267C175.552 267 176 267.448 176 268Z" stroke="{{color[0]}}"/>
<path d="M194 272C194 272.552 193.552 273 193 273C192.448 273 192 272.552 192 272C192 271.448 192.448 271 193 271C193.552 271 194 271.448 194 272Z" stroke="{{color[0]}}"/>
<path d="M228 246C228 246.552 227.552 247 227 247C226.448 247 226 246.552 226 246C226 245.448 226.448 245 227 245C227.552 245 228 245.448 228 246Z" stroke="{{color[0]}}"/>
<path d="M242 250C242 250.552 241.552 251 241 251C240.448 251 240 250.552 240 250C240 249.448 240.448 249 241 249C241.552 249 242 249.448 242 250Z" stroke="{{color[0]}}"/>
<path d="M234 267C234 267.552 233.552 268 233 268C232.448 268 232 267.552 232 267C232 266.448 232.448 266 233 266C233.552 266 234 266.448 234 267Z" stroke="{{color[0]}}"/>
<path d="M248 236C248 236.552 247.552 237 247 237C246.448 237 246 236.552 246 236C246 235.448 246.448 235 247 235C247.552 235 248 235.448 248 236Z" stroke="{{color[0]}}"/>
<path d="M155 238C155 238.552 154.552 239 154 239C153.448 239 153 238.552 153 238C153 237.448 153.448 237 154 237C154.552 237 155 237.448 155 238Z" stroke="{{color[0]}}"/>
<path d="M179 238C179 238.552 178.552 239 178 239C177.448 239 177 238.552 177 238C177 237.448 177.448 237 178 237C178.552 237 179 237.448 179 238Z" stroke="{{color[0]}}"/>
<path d="M179 220C179 220.552 178.552 221 178 221C177.448 221 177 220.552 177 220C177 219.448 177.448 219 178 219C178.552 219 179 219.448 179 220Z" stroke="{{color[0]}}"/>
<path d="M183 274C183 274.552 182.552 275 182 275C181.448 275 181 274.552 181 274C181 273.448 181.448 273 182 273C182.552 273 183 273.448 183 274Z" stroke="{{color[0]}}"/>
<path d="M210 274C210 274.552 209.552 275 209 275C208.448 275 208 274.552 208 274C208 273.448 208.448 273 209 273C209.552 273 210 273.448 210 274Z" stroke="{{color[0]}}"/>
<path d="M221 274C221 274.552 220.552 275 220 275C219.448 275 219 274.552 219 274C219 273.448 219.448 273 220 273C220.552 273 221 273.448 221 274Z" stroke="{{color[0]}}"/>
<path d="M238 238C238 238.552 237.552 239 237 239C236.448 239 236 238.552 236 238C236 237.448 236.448 237 237 237C237.552 237 238 237.448 238 238Z" stroke="{{color[0]}}"/>
<path d="M238 220C238 220.552 237.552 221 237 221C236.448 221 236 220.552 236 220C236 219.448 236.448 219 237 219C237.552 219 238 219.448 238 220Z" stroke="{{color[0]}}"/>
<path d="M258 233C258 233.552 257.552 234 257 234C256.448 234 256 233.552 256 233C256 232.448 256.448 232 257 232C257.552 232 258 232.448 258 233Z" stroke="{{color[0]}}"/>
<path d="M158 225C158 225.552 157.552 226 157 226C156.448 226 156 225.552 156 225C156 224.448 156.448 224 157 224C157.552 224 158 224.448 158 225Z" stroke="{{color[0]}}"/>
<path d="M168 260C168 260.552 167.552 261 167 261C166.448 261 166 260.552 166 260C166 259.448 166.448 259 167 259C167.552 259 168 259.448 168 260Z" stroke="{{color[0]}}"/>
<path d="M164 267C164 267.552 163.552 268 163 268C162.448 268 162 267.552 162 267C162 266.448 162.448 266 163 266C163.552 266 164 266.448 164 267Z" stroke="{{color[0]}}"/>
<path d="M204 247C204 247.552 203.552 248 203 248C202.448 248 202 247.552 202 247C202 246.448 202.448 246 203 246C203.552 246 204 246.448 204 247Z" stroke="{{color[0]}}"/>
<path d="M216 249C216 249.552 215.552 250 215 250C214.448 250 214 249.552 214 249C214 248.448 214.448 248 215 248C215.552 248 216 248.448 216 249Z" stroke="{{color[0]}}"/>
<path d="M202 279C202 279.552 201.552 280 201 280C200.448 280 200 279.552 200 279C200 278.448 200.448 278 201 278C201.552 278 202 278.448 202 279Z" stroke="{{color[0]}}"/>
<path d="M225 228C225 228.552 224.552 229 224 229C223.448 229 223 228.552 223 228C223 227.448 223.448 227 224 227C224.552 227 225 227.448 225 228Z" stroke="{{color[0]}}"/>
<path d="M225 210C225 210.552 224.552 211 224 211C223.448 211 223 210.552 223 210C223 209.448 223.448 209 224 209C224.552 209 225 209.448 225 210Z" stroke="{{color[0]}}"/>
<path d="M249 225C249 225.552 248.552 226 248 226C247.448 226 247 225.552 247 225C247 224.448 247.448 224 248 224C248.552 224 249 224.448 249 225Z" stroke="{{color[0]}}"/>
<path d="M256 215C256 215.552 255.552 216 255 216C254.448 216 254 215.552 254 215C254 214.448 254.448 214 255 214C255.552 214 256 214.448 256 215Z" stroke="{{color[0]}}"/>
<path d="M167 234C167 234.552 166.552 235 166 235C165.448 235 165 234.552 165 234C165 233.448 165.448 233 166 233C166.552 233 167 233.448 167 234Z" stroke="{{color[0]}}"/>
<path d="M167 245C167 245.552 166.552 246 166 246C165.448 246 165 245.552 165 245C165 244.448 165.448 244 166 244C166.552 244 167 244.448 167 245Z" stroke="{{color[0]}}"/>
<path d="M188 230C188 230.552 187.552 231 187 231C186.448 231 186 230.552 186 230C186 229.448 186.448 229 187 229C187.552 229 188 229.448 188 230Z" stroke="{{color[0]}}"/>
<path d="M188 212C188 212.552 187.552 213 187 213C186.448 213 186 212.552 186 212C186 211.448 186.448 211 187 211C187.552 211 188 211.448 188 212Z" stroke="{{color[0]}}"/>
<path d="M200 226C200 226.552 199.552 227 199 227C198.448 227 198 226.552 198 226C198 225.448 198.448 225 199 225C199.552 225 200 225.448 200 226Z" stroke="{{color[0]}}"/>
<path d="M212 220C212 220.552 211.552 221 211 221C210.448 221 210 220.552 210 220C210 219.448 210.448 219 211 219C211.552 219 212 219.448 212 220Z" stroke="{{color[0]}}"/>
<path d="M225 220C225 220.552 224.552 221 224 221C223.448 221 223 220.552 223 220C223 219.448 223.448 219 224 219C224.552 219 225 219.448 225 220Z" stroke="{{color[0]}}"/>
<path d="M238 220C238 220.552 237.552 221 237 221C236.448 221 236 220.552 236 220C236 219.448 236.448 219 237 219C237.552 219 238 219.448 238 220Z" stroke="{{color[0]}}"/>
<path d="M264 220C264 220.552 263.552 221 263 221C262.448 221 262 220.552 262 220C262 219.448 262.448 219 263 219C263.552 219 264 219.448 264 220Z" stroke="{{color[0]}}"/>
<path d="M186 260C186 260.552 185.552 261 185 261C184.448 261 184 260.552 184 260C184 259.448 184.448 259 185 259C185.552 259 186 259.448 186 260Z" stroke="{{color[0]}}"/>
<path d="M197 254C197 254.552 196.552 255 196 255C195.448 255 195 254.552 195 254C195 253.448 195.448 253 196 253C196.552 253 197 253.448 197 254Z" stroke="{{color[0]}}"/>
<path d="M193 246C193 246.552 192.552 247 192 247C191.448 247 191 246.552 191 246C191 245.448 191.448 245 192 245C192.552 245 193 245.448 193 246Z" stroke="{{color[0]}}"/>
<path d="M217 237C217 237.552 216.552 238 216 238C215.448 238 215 237.552 215 237C215 236.448 215.448 236 216 236C216.552 236 217 236.448 217 237Z" stroke="{{color[0]}}"/>
<path d="M168 219C168 219.552 167.552 220 167 220C166.448 220 166 219.552 166 219C166 218.448 166.448 218 167 218C167.552 218 168 218.448 168 219Z" stroke="{{color[0]}}"/>
<path d="M205 235C205 235.552 204.552 236 204 236C203.448 236 203 235.552 203 235C203 234.448 203.448 234 204 234C204.552 234 205 234.448 205 235Z" stroke="{{color[0]}}"/>
<path d="M205 217C205 217.552 204.552 218 204 218C203.448 218 203 217.552 203 217C203 216.448 203.448 216 204 216C204.552 216 205 216.448 205 217Z" stroke="{{color[0]}}"/>
<path d="M240 231C240 231.552 239.552 232 239 232C238.448 232 238 231.552 238 231C238 230.448 238.448 230 239 230C239.552 230 240 230.448 240 231Z" stroke="{{color[0]}}"/>
<path d="M240 213C240 213.552 239.552 214 239 214C238.448 214 238 213.552 238 213C238 212.448 238.448 212 239 212C239.552 212 240 212.448 240 213Z" stroke="{{color[0]}}"/>
<path d="M247 215C247 215.552 246.552 216 246 216C245.448 216 245 215.552 245 215C245 214.448 245.448 214 246 214C246.552 214 247 214.448 247 215Z" stroke="{{color[0]}}"/>
<path d="M262 206C262 206.552 261.552 207 261 207C260.448 207 260 206.552 260 206C260 205.448 260.448 205 261 205C261.552 205 262 205.448 262 206Z" stroke="{{color[0]}}"/>
</svg>
