<svg width="380" height="380" viewBox="0 0 380 380" fill="none" xmlns="http://www.w3.org/2000/svg">
<path d="M269.178 82.3965C260.856 122.294 162.5 127.896 142.678 127.896C90.6557 133.823 115.626 196.262 125.178 227.396C117.678 228.396 118.678 237.396 89.6782 165.896C66.4782 108.696 132.184 73.8337 181 61.9995C229.816 50.1653 248.5 33.502 248.5 33.502C269.178 42 274.117 58.7185 269.178 82.3965Z" fill="black"/>
<path d="M264.135 155.947L248.316 102.507L258.354 93.3644C269.11 130.452 269.602 151.988 264.135 155.947Z" fill="black"/>
<path d="M139 201C133.4 173.8 119.334 178.667 110 180L100 136L140.585 127.506C141.337 127.266 142.141 127.095 143 127L140.585 127.506C122.434 133.299 134.957 179.796 150 199L139 201Z" fill="black"/>
<path d="M83.9895 98.3632C92.8349 93.9091 103.281 96.4873 107.399 98.3331L95.6281 113.213C98.6633 108.357 89.1337 101.29 83.9895 98.3632Z" fill="black"/>
<path d="M69 115.5C80.6 108.7 91.8333 111 96 113L91.5 128.5C90.3 120.1 76 116.333 69 115.5Z" fill="black"/>
</svg>
