<svg width="380" height="380" viewBox="0 0 380 380" fill="none" xmlns="http://www.w3.org/2000/svg">
<path d="M281.726 131.791C281.726 65.702 245.268 21.0001 200.859 21C143.966 21 86 42.3414 86 143.255C86 168.223 96.6589 186.827 111.564 200.54C110.07 198.671 108.867 196.996 108.067 195.619C105.176 168.638 137.233 147.929 168.601 127.665C185.254 116.907 201.712 106.275 212.646 94.8956C222.24 100.332 250.44 123.109 255.813 132.32C258.695 137.26 263.322 154.189 266.484 173.95C276.822 161.532 281.726 149.107 281.726 131.791Z" fill="white" stroke="black" stroke-width="4"/>
<path d="M213.264 94.2459C226.438 82.3014 246.146 55.04 244.881 37.3341" stroke="black" stroke-width="4"/>
</svg>
