<svg width="380" height="380" viewBox="0 0 380 380" fill="none" xmlns="http://www.w3.org/2000/svg">
<path d="M182.788 48.4887L182.864 48.4969L182.941 48.4991C209.61 49.2835 230.342 59.8969 245.014 72.8493C259.07 85.2583 267.463 99.7231 270.2 109.582C266.14 111.899 259.186 113.893 250.315 115.528C240.64 117.312 229.022 118.615 217.169 119.544C193.462 121.401 168.979 121.749 157.543 121.5L151.47 121.368L156.277 125.083C158.774 127.013 162.099 128.356 165.615 129.3C169.157 130.252 173.034 130.835 176.747 131.167C180.571 131.509 184.299 131.589 187.388 131.51C176.801 139.672 163.326 145.948 150.039 150.6C134.693 155.973 119.769 159.12 110.21 160.521L108.061 160.836L108.552 162.952C111.899 177.381 118.052 202.603 122.179 219.519C124.011 227.025 125.443 232.895 126.054 235.463C127.138 240.017 130.552 246.508 134.449 252.491C138.042 258.008 142.233 263.38 145.771 266.687L137.933 298.5H108.372C116.71 285.787 118.47 271.097 116.769 255.517C114.929 238.653 109.008 220.513 102.766 202.35C102.152 200.562 101.534 198.774 100.917 196.986C95.2331 180.527 89.5649 164.113 86.4941 148.382C83.0927 130.958 82.9412 114.651 89.3269 100.314C99.6658 77.0999 117.993 63.6198 136.326 56.1911C154.702 48.745 172.946 47.4399 182.788 48.4887Z" fill="{{color[0]}}" stroke="#171921" stroke-width="4"/>
</svg>
