<svg width="393" height="380" viewBox="0 0 393 380" fill="none" xmlns="http://www.w3.org/2000/svg">
<path d="M281.672 145.498C258.044 106.86 252.162 112.419 253 122C251.696 131.943 268.51 165.85 274.105 197C279.672 228 267.704 215.219 256.344 216.5C256.344 216.5 254.315 232.271 256.344 240.423C258.879 250.612 268.107 240.072 255.835 261.159C243.564 282.246 251.913 299.233 274.105 299.378C296.296 299.524 269.856 303.012 279.672 309.329C329.007 341.078 384.704 296.59 371.239 300.456C360.467 303.549 345.289 299.013 332.076 294.228C323.003 274.33 347.24 314.213 371.275 267.471C398 215.5 335.249 244.5 324.507 230.675C304.042 204.338 330.441 237.958 333.53 186.18C336.619 134.402 311.208 193.795 281.672 145.498Z" fill="{{color[0]}}" stroke="black" stroke-width="4"/>
<path d="M73.0001 145C86.6001 101.8 93.0001 110 94.5001 119.5C98.1668 128.833 103.3 155.1 94.5001 185.5C85.7001 215.9 106.167 220.5 117.5 219C118.5 219.5 120.5 222.6 120.5 231C120.5 241.5 109 233.5 126 251C143 268.5 139 287 117.5 292.5C96.0002 298 122.5 295 114.5 303.5C74.2909 346.223 9.50018 316.5 23.5002 317C34.7002 317.4 48.3335 309.333 60.0002 301.5C64.0002 280 56.0002 318.5 15.5002 285C-17.0575 258.07 35.5967 275.06 52.0002 238C65.5002 207.5 48.0002 246.5 32.5002 197C17.0002 147.5 56.0001 199 73.0001 145Z" fill="{{color[0]}}" stroke="black" stroke-width="4"/>
<path d="M86.0003 176C76.0003 183.5 60.0003 177 70.5003 176C70.5003 176 94.6251 141.937 88.5003 120.5C81.0003 94.2501 116.5 71.5 116.5 71.5C147 35.5 180.5 48 180.5 48C180.5 48 217 32.5 252.5 64.5C288.693 97.1243 249 88.5 269 94.5C304.5 86.5 285.5 110 269 107.5C252.5 105 269.218 112.843 273 133.5C276.629 153.318 285.698 141.912 297.5 145C297.5 145 286.5 158.5 278.5 159C270.5 159.5 259.5 155.4 259.5 145C259.5 132 258.5 133.5 252.5 120.5C246.5 107.5 257.5 139.5 245.5 139.5C245.5 118.3 235.167 100.667 230 94.5C221.834 100 204.2 107.7 199 94.5C192.5 78 200 107.5 186 107.5C151 107.5 166 106.5 172 94.5C178 82.5 160 81.5 155.5 94.5C151.9 104.9 159 116.167 163 120.5C152.167 120.5 134.3 128.4 135.5 118C132.446 128.471 125.966 127.902 115.726 136.224C120.943 132.741 125 129.964 125 129.964C126.334 140.631 133 178 114.5 178C100.27 178 91.9393 187.996 84.5003 191C90.4149 185.998 94.1957 169.853 86.0003 176Z" fill="{{color[0]}}"/>
<path d="M135.5 118C132 130 124 127.5 111 140.5C107.567 143.933 108.663 149.279 108 151C108 151 103.5 152.5 98.5003 139.5L88.5003 120.5M135.5 118C139 106 140.5 67.5 150.5 67.5M135.5 118C134.3 128.4 152.167 120.5 163 120.5C159 116.167 151.9 104.9 155.5 94.5C160 81.5 178 82.5 172 94.5C166 106.5 151 107.5 186 107.5C200 107.5 192.5 78 199 94.5C204.2 107.7 221.834 100 230 94.5C235.167 100.667 245.5 118.3 245.5 139.5C257.5 139.5 246.5 107.5 252.5 120.5C258.5 133.5 259.5 132 259.5 145C259.5 155.4 270.5 159.5 278.5 159C286.5 158.5 297.5 145 297.5 145C285.698 141.912 276.629 153.318 273 133.5C269.218 112.843 252.5 105 269 107.5C285.5 110 304.5 86.5 269 94.5C249 88.5 288.693 97.1243 252.5 64.5C217 32.5 180.5 48 180.5 48C180.5 48 147 35.5 116.5 71.5C116.5 71.5 81.0003 94.2501 88.5003 120.5M88.5003 120.5C94.6251 141.937 70.5003 176 70.5003 176C60.0003 177 76.0003 183.5 86.0003 176C94.1957 169.853 90.4149 185.998 84.5003 191C91.9393 187.996 100.27 178 114.5 178C133 178 126.334 140.631 125 129.964C125 129.964 85.5003 157 94.5003 148.181C103.5 139.362 88.5003 120.5 88.5003 120.5Z" stroke="black" stroke-width="4"/>
<path d="M263.491 125.206C265.863 116.869 277.225 100.438 303.695 101.413M89 125.5C82.1667 120.167 63.3 113.6 42.5 130M267.279 126.154C267.279 126.154 310.627 125.822 301.855 136.192C293.083 146.562 267.279 126.154 267.279 126.154ZM86.5 128.5C86.5 128.5 51.3 153.8 64.5 157C77.7 160.2 86.5 128.5 86.5 128.5Z" stroke="#6E885F" stroke-width="4"/>
</svg>
