<svg width="380" height="380" viewBox="0 0 380 380" fill="none" xmlns="http://www.w3.org/2000/svg">
<path fill-rule="evenodd" clip-rule="evenodd" d="M269.178 81.3965C267.915 87.4543 264.575 92.7215 259.75 97.2985C269.142 131.363 269.355 151.167 264.135 154.947L249.339 104.961C217.39 123.702 157.645 126.896 142.678 126.896C141.135 127.072 139.66 127.298 138.249 127.571C123.603 136.563 135.656 179.688 150 198L139 200C133.86 175.034 121.587 177.084 112.389 178.62L112.071 178.673C114.265 192.304 118.795 206.406 122.516 217.992C123.475 220.977 124.38 223.796 125.178 226.396C124.395 226.501 123.704 226.693 123.062 226.871C117.56 228.398 115.649 228.929 89.6782 164.896C83.3355 149.258 83.6379 135.29 88.4235 123.005C83.5563 118.388 74.236 116.123 69 115.5C79.0741 109.594 88.8717 110.552 94.0041 112.217C94.6714 111.191 95.3703 110.18 96.0994 109.182C95.1296 104.77 88.1353 99.7217 83.9895 97.3632C92.5498 93.0527 102.609 95.3284 106.981 97.1525C126.63 79.1358 156.026 67.054 181 60.9995C229.816 49.1653 248.5 32.502 248.5 32.502C269.178 41 274.117 57.7185 269.178 81.3965Z" fill="{{color[0]}}" stroke="black" stroke-width="4" />
</svg>
