<svg width="380" height="380" viewBox="0 0 380 380" fill="none" xmlns="http://www.w3.org/2000/svg">
<path d="M243.76 367.932C243.271 367.902 242.865 367.872 242.544 367.847C236.393 358.458 230.789 342.969 226.447 327.059C222.226 311.589 219.261 295.968 218.147 285.649C255.22 274.931 278.458 236.667 272.871 197.189C272.864 197.117 272.856 197.067 272.856 197.066C272.848 197.006 272.837 196.938 272.825 196.867C272.802 196.724 272.768 196.532 272.726 196.3C272.641 195.832 272.516 195.172 272.353 194.346C272.028 192.693 271.552 190.358 270.942 187.532C269.722 181.88 267.967 174.249 265.825 166.155C263.685 158.065 261.152 149.485 258.372 141.945C255.613 134.46 252.541 127.802 249.264 123.706L248.967 123.335L248.532 123.146C246.6 122.308 244.593 121.374 242.499 120.399C232.568 115.775 220.659 110.23 205.235 109.62C186.46 108.877 162.684 115.396 130.544 138.706L128.521 140.173L130.467 141.74C146.393 154.574 149.836 171.598 149.1 186.048C148.539 197.077 145.551 206.459 143.865 211.149C142.704 209.452 141.964 207.319 141.408 204.814C141.023 203.083 140.743 201.258 140.449 199.347L140.403 199.045C140.096 197.051 139.769 194.97 139.292 192.961C138.341 188.95 136.732 184.941 133.16 182.102C129.581 179.257 124.364 177.848 116.767 178.272L114.54 178.396L115.005 180.578L126.363 233.891L126.382 233.98L126.41 234.068C130.468 246.93 137.426 258.078 146.323 266.88C146.399 267.007 146.509 267.193 146.65 267.434C146.939 267.928 147.356 268.653 147.861 269.563C148.87 271.384 150.229 273.941 151.621 276.886C154.435 282.835 157.282 290.138 157.83 296.102C158.386 302.154 156.865 309.962 155.123 316.412C154.26 319.605 153.361 322.406 152.677 324.407C152.535 324.824 152.402 325.206 152.281 325.549C147.249 323.144 142.754 323.323 138.902 325.565C134.738 327.989 131.689 332.625 129.419 337.781C125.271 347.202 123.276 359.42 122.355 367.002C97.4846 361.298 78.281 355.507 65.2149 351.107C58.5012 348.846 53.408 346.953 49.9993 345.627C48.2949 344.964 47.0117 344.443 46.1575 344.089C45.9454 344.002 45.7598 343.924 45.6007 343.857C45.4477 343.466 45.2377 342.916 44.9828 342.219C44.4158 340.667 43.6268 338.384 42.7485 335.479C40.9915 329.667 38.8806 321.38 37.4734 311.502C34.6563 291.725 34.6769 265.696 45.8698 240.384C47.679 236.292 49.94 232.089 52.3903 227.533C61.8582 209.931 74.1551 187.07 74.1551 145.084C74.1551 114.493 89.0029 88.7305 110.862 70.5692C132.741 52.3915 161.56 41.9109 189.237 41.9109C204.368 41.9109 216.533 43.6444 226.311 49.5511C236.028 55.4212 243.679 65.5978 249.362 83.1322C249.94 84.9168 251.851 86.0074 253.719 85.4015C265.034 81.7304 282.191 85.4361 296.673 94.8904C311.091 104.303 322.289 119.046 322.289 136.814C322.289 152.24 319.647 162.664 317.071 172.815L317.071 172.815C313.952 185.104 310.94 196.974 313.065 216.313C313.774 222.762 315.216 227.336 317.231 231.128C319.213 234.859 321.712 237.747 324.345 240.792L324.405 240.861C330.679 248.113 333.534 254.079 334.455 259.327C335.375 264.562 334.412 269.31 332.623 274.237C331.723 276.712 330.629 279.197 329.47 281.815L329.37 282.04C328.249 284.573 327.074 287.225 326.019 290.016C323.836 295.787 322.133 302.223 322.302 309.851C322.446 316.326 323.594 320.764 325.311 324.122C327.008 327.442 329.199 329.565 331.111 331.417L331.162 331.466C332.905 333.155 334.355 334.577 335.428 336.57C336.387 338.351 337.098 340.702 337.217 344.232C313.208 358.511 289.445 364.413 271.601 366.734C262.565 367.91 255.057 368.166 249.818 368.129C247.199 368.11 245.149 368.019 243.76 367.932Z" fill="{{color[0]}}" stroke="black" stroke-width="3.82184"/>
</svg>
