<svg width="380" height="380" viewBox="0 0 380 380" fill="none" xmlns="http://www.w3.org/2000/svg">
<path d="M271 179C271 170.95 263.5 153 266.5 139.5L260 149.5C265.167 162.167 271 186 271 179Z" fill="{{color[0]}}"/>
<path d="M105.5 178L98 144.987C106.667 146.487 125.3 149 132.5 157C139.7 165 136.167 177.667 136 184C134 188.167 134.5 204 132.5 194C130.5 184 113.667 176.5 105.5 178Z" fill="{{color[0]}}"/>
<path d="M154.5 107.5C144.255 107.5 133.5 116.333 130.5 119C121 114.5 138.5 86 147 78C152.542 72.7841 170.412 87.5476 178.852 95.129C179.53 95.6253 180.244 96.2442 181 97C181.686 97.6861 182.21 98.2055 182.587 98.5765C183.544 99.4878 183.655 99.6261 182.587 98.5765C181.824 97.8493 180.523 96.6299 178.852 95.129C168.765 87.745 166.681 107.5 154.5 107.5Z" fill="{{color[0]}}"/>
<path d="M155 105C154.985 104.033 154.978 102.994 154.988 101.923C154.86 100.999 153.747 117.577 145 100.5C141.9 94.4471 137.5 105 137.5 120.5C137.5 132.9 123 128 114.5 135.5C124.667 141.5 142.1 155.8 130.5 165C137.5 171 116 155 105 148.5C94 142 77.5 139.5 85 128C92.5 116.5 88 120.5 98 88.5C106 62.9 127.667 64.5 137.5 68.5C140.333 67.1667 145.8 62.6 145 55C144 45.5 172.5 26.5 190 23.5C207.5 20.5 241.5 57.5 250.5 64.5L250.627 64.5986C259.846 71.7682 296.91 100.593 277.5 120.5C277.5 100.5 276 112.667 273 112.5C271.167 115.167 267.4 123.5 267 135.5C266.5 150.5 241.5 155.5 250.5 148.5C259.5 141.5 236 112.5 241.5 120.5C247 128.5 235 144 236 139.5C237 135 229.5 120.5 230.5 128C228 142.5 216.5 147 222 139.5C222 128 192 100.5 190 112.5C188.4 122.1 203.667 126.833 211.5 128C209 131.5 199.9 134.9 183.5 120.5C185.1 127.7 176.833 128.5 172.5 128C177 119.5 181.3 126.1 168.5 100.5C156.861 77.2211 155.089 91.1796 154.988 101.923C155.014 102.108 155 102.996 155 105Z" fill="{{color[0]}}"/>
<path d="M178.852 95.129C168.765 87.745 166.681 107.5 154.5 107.5C144.255 107.5 133.5 116.333 130.5 119C121 114.5 138.5 86 147 78C152.542 72.7841 170.412 87.5476 178.852 95.129ZM178.852 95.129C179.53 95.6253 180.244 96.2443 181 97C181.686 97.6861 182.21 98.2055 182.587 98.5765M178.852 95.129C180.523 96.6299 181.824 97.8493 182.587 98.5765M182.587 98.5765C183.655 99.6261 183.544 99.4878 182.587 98.5765ZM154.988 101.923C154.978 102.994 154.985 104.033 155 105C155 102.996 155.014 102.108 154.988 101.923ZM154.988 101.923C155.089 91.1796 156.861 77.2211 168.5 100.5C181.3 126.1 177 119.5 172.5 128C176.833 128.5 185.1 127.7 183.5 120.5C199.9 134.9 209 131.5 211.5 128C203.667 126.833 188.4 122.1 190 112.5C192 100.5 222 128 222 139.5C216.5 147 228 142.5 230.5 128C229.5 120.5 237 135 236 139.5C235 144 247 128.5 241.5 120.5C236 112.5 259.5 141.5 250.5 148.5C241.5 155.5 266.5 150.5 267 135.5C267.4 123.5 271.167 115.167 273 112.5C276 112.667 277.5 100.5 277.5 120.5C296.91 100.593 259.846 71.7682 250.627 64.5986L250.5 64.5C241.5 57.5 207.5 20.5 190 23.5C172.5 26.5 144 45.5 145 55C145.8 62.6 140.333 67.1667 137.5 68.5C127.667 64.5 106 62.9 98 88.5C88 120.5 92.5 116.5 85 128C77.5 139.5 94 142 105 148.5C116 155 137.5 171 130.5 165C142.1 155.8 124.667 141.5 114.5 135.5C123 128 137.5 132.9 137.5 120.5C137.5 105 141.9 94.4471 145 100.5C153.747 117.577 154.86 100.999 154.988 101.923ZM266.5 139.5C263.5 153 271 170.95 271 179C271 186 265.167 162.167 260 149.5L266.5 139.5ZM98 144.987L105.5 178C113.667 176.5 130.5 184 132.5 194C134.5 204 134 188.167 136 184C136.167 177.667 139.7 165 132.5 157C125.3 149 106.667 146.487 98 144.987Z" stroke="black" stroke-width="4"/>
</svg>
