<svg width="380" height="380" viewBox="0 0 380 380" fill="none" xmlns="http://www.w3.org/2000/svg">
<path opacity="0.35" d="M246.985 108.175C238.985 101.775 225.152 101.175 219.485 101.675L211.485 75.175C225.085 78.375 243.485 99.175 246.985 108.175Z" fill="{{color[0]}}"/>
<path d="M144.792 42.7638C144.792 42.7638 150.53 38.8022 174.746 32.7012C198.962 26.6002 207.792 28.9835 207.792 28.9835L219.58 101.815C219.58 101.815 211.541 101.642 191.548 106.009C171.555 110.376 161.985 115.675 161.985 115.675L144.792 42.7638Z" fill="{{color[0]}}"/>
<path d="M107.985 117.675C101.185 76.075 131.319 49.5084 144.985 42.175L161.985 115.675C142.785 76.075 116.652 100.508 107.985 117.675Z" fill="{{color[0]}}"/>
<path opacity="0.35" d="M126.485 161.675C119.285 134.475 148.485 119.841 161.985 115.674C154.985 99.3408 138.985 84.6741 119.485 102.675C101.485 133.174 108.485 156.675 113.986 174.675L126.485 161.675Z" fill="{{color[0]}}"/>
</svg>
