<svg width="380" height="380" viewBox="0 0 380 380" fill="none" xmlns="http://www.w3.org/2000/svg">
<path d="M164.836 119.819C164.051 118.078 164.05 118.078 164.049 118.078L164.047 118.079L164.039 118.083L164.014 118.094C163.993 118.104 163.963 118.118 163.924 118.136C163.889 118.152 163.847 118.171 163.799 118.194C163.739 118.222 163.669 118.255 163.59 118.293C163.301 118.431 162.882 118.635 162.351 118.904C161.29 119.443 159.782 120.242 157.971 121.295C154.355 123.398 149.514 126.527 144.627 130.626C134.911 138.776 124.704 151.03 124.09 166.926C123.825 173.765 122.97 206.806 123.161 219.433C123.322 230.065 128.824 241.481 136.457 252.008C143.108 261.18 151.507 269.857 159.831 277.008C122.066 278.501 93.4547 273.546 74.12 268.121C64.0371 265.292 56.4733 262.334 51.4465 260.094C49.4594 259.208 47.8687 258.434 46.6754 257.825C55.7698 251.141 63.3569 239.682 68.3629 222.675C73.8528 204.024 76.2872 178.554 74.1512 144.963C72.2158 114.525 87.0079 88.8092 109.359 70.6291C131.734 52.4301 161.549 41.9109 189.237 41.9109C204.22 41.9109 216.376 44.8448 226.176 51.9616C235.979 59.081 243.667 70.5619 249.362 88.1322L249.757 89.3516L251.035 89.4485C263.411 90.3865 272.114 95.4881 278.531 103.662C285.017 111.924 289.239 123.422 292.335 137.232C294.375 146.332 292.389 155.311 290.001 165.651L289.889 166.133C287.552 176.25 284.951 187.505 286.095 200.666C287.125 212.51 291.852 224.135 295.782 233.074C296.286 234.222 296.775 235.321 297.242 236.368C298.616 239.455 299.792 242.096 300.585 244.253C301.117 245.698 301.424 246.79 301.522 247.566C301.572 247.963 301.555 248.168 301.541 248.254C301.096 248.665 300.272 249.12 298.956 249.522C297.587 249.94 295.863 250.248 293.881 250.442C289.92 250.828 285.138 250.738 280.543 250.296C275.941 249.853 271.637 249.067 268.622 248.108C267.091 247.622 266.033 247.134 265.436 246.711C265.344 246.646 265.274 246.591 265.221 246.546C265.594 245.259 266.131 243.723 266.752 241.949C269.947 232.824 275.347 217.398 271.855 197.08C269.765 184.924 264.189 163.457 259.161 145.11C256.643 135.919 254.254 127.483 252.495 121.344C251.615 118.275 250.893 115.78 250.391 114.052C250.139 113.187 249.943 112.515 249.81 112.058L249.657 111.538L249.618 111.405L249.608 111.372L249.606 111.363L249.605 111.361C249.605 111.361 249.605 111.36 247.772 111.899L249.605 111.36L248.676 108.201L246.395 110.575L246.394 110.575L246.39 110.579L246.371 110.599C246.352 110.618 246.324 110.647 246.285 110.687C246.207 110.766 246.087 110.886 245.927 111.044C245.606 111.361 245.123 111.83 244.481 112.429C243.198 113.627 241.285 115.343 238.783 117.394C233.778 121.498 226.427 126.938 217.067 132.257C199.249 142.382 174.216 152.037 144.245 151.29C153.86 142.359 159.391 135.018 162.561 129.701C164.328 126.736 165.359 124.403 165.954 122.778C166.251 121.965 166.439 121.331 166.555 120.884C166.613 120.66 166.652 120.484 166.679 120.356C166.692 120.292 166.702 120.24 166.71 120.2C166.713 120.18 166.716 120.163 166.719 120.149L166.722 120.131L166.723 120.124L166.723 120.12C166.724 120.119 166.724 120.117 164.836 119.819ZM164.836 119.819L164.051 118.078L167.275 116.623L166.724 120.117L164.836 119.819ZM265.067 246.388C265.07 246.388 265.082 246.402 265.096 246.428C265.072 246.401 265.065 246.388 265.067 246.388Z" fill="{{color[0]}}" stroke="black" stroke-width="3.82184"/>
<path d="M250 89C250.5 93.5 249.7 102.5 248.5 108.5" stroke="black" stroke-width="4"/>
</svg>
