<svg width="380" height="380" viewBox="0 0 380 380" fill="none" xmlns="http://www.w3.org/2000/svg">
<path d="M96.6691 293.267C96.6691 267.627 68.0267 179.959 78.6032 131.639C89.1798 83.3186 109.21 59.1734 134.9 50.1638C160.591 41.1542 168.239 47.6344 196.958 50.1624C225.678 52.6904 245.384 58.8787 257.256 87.9823C269.128 117.086 266.402 134.056 272.182 158.795C277.962 183.534 283.849 224.613 283.849 256.925C283.849 289.238 281.868 286.441 287.313 290.32C292.757 294.199 306.226 293.267 306.226 293.267C305.173 296.6 284.928 310.088 290.717 313.772C296.506 317.456 308.495 313.772 308.495 313.772C308.495 313.772 308.892 325.12 290.717 328.574C272.542 332.027 232.925 334.341 228.182 328.574C223.439 322.806 223.16 324.527 222.189 313.772C221.218 303.017 211.693 284.477 217.713 284.477C223.733 284.477 264.617 269.91 272.182 231.311C279.747 192.713 263.482 158.795 263.482 158.795C254.404 105.729 236.248 80.0075 240.002 101.39C240.002 101.39 242.538 118.212 240.002 118.212C237.465 118.212 226.565 94.9777 223.733 94.9777C220.901 94.9777 225.524 118.866 222.189 120.865C218.854 122.865 200.426 126.747 196.958 121.586C193.49 116.424 185.258 95.9277 185.258 95.9277C185.258 95.9277 188.82 123.372 188.82 126.565C188.82 129.759 162.661 133.308 156.798 131.639C150.935 129.97 143.004 115.957 143.004 115.957C143.004 115.957 126.75 152.872 134.9 158.795C143.05 164.718 146.006 201.704 143.004 208.043C140.001 214.382 134.209 175.013 129.21 173.093C124.211 171.173 108.755 181.774 117.662 193.388C126.569 205.002 123.903 209.552 123.903 213.423C123.903 217.294 117.662 221.829 117.662 221.829C117.662 221.829 131.601 251.515 137.161 258.235C142.722 264.955 156.798 284.885 156.798 299.676C156.798 314.467 152.211 320.124 152.211 320.124L137.69 331.347C137.69 331.347 129.21 344.356 117.662 352.278C106.114 360.2 92.8751 363.43 78.6032 356.739C64.3313 350.048 52.3096 313.772 52.3096 313.772C52.3096 313.772 71.704 327.819 71.704 320.124V299.676C71.704 299.676 96.6691 318.908 96.6691 293.267Z" fill="{{color[0]}}" stroke="black" stroke-width="5"/>
</svg>
