<svg width="380" height="380" viewBox="0 0 380 380" fill="none" xmlns="http://www.w3.org/2000/svg">
<path d="M170.271 99.673C167.272 95.8177 165.612 98.3136 162.157 103.51C161.185 104.972 160.07 106.648 158.743 108.457C158.41 108.911 157.966 109.267 157.424 109.531C157.323 109.709 157.182 109.872 156.999 110.018C149.51 113.892 146.637 114.486 144.152 115C141.353 115.578 139.046 116.055 131.195 120.999C122.411 126.529 119.614 146.693 119.614 156.026C119.614 159.392 121.614 169.473 123.914 181.064C127.99 201.607 133.006 226.893 129.497 227.946C126.869 228.735 124.871 220.721 122.478 211.127C119.87 200.673 116.795 188.343 111.928 183.477C105.908 177.457 103.315 180.116 99.7271 183.794C97.7526 185.818 95.4772 188.151 92.1639 189.516C92.1639 189.516 86.6738 186.222 81.7329 175.241C76.7919 164.261 71.302 142.85 73.4978 126.379C75.6935 109.909 88.8696 86.8515 109.183 81.3604C110.369 81.0399 111.487 80.7755 112.542 80.5617C112.557 80.341 112.585 80.1233 112.625 79.9089C115.007 67.2814 124.704 51.9107 150.508 40.3807C176.311 28.8506 211.448 49.7156 226.82 59.5965C228.426 60.6286 229.858 61.5409 231.15 62.3641L231.151 62.3651C242.227 69.4216 243.021 69.9276 254.82 83.2023C267.995 98.026 270.74 117.241 268.544 126.575C268.383 127.26 268.227 127.932 268.075 128.592C267.595 130.662 267.146 132.601 266.656 134.377C269.723 153.375 271.719 184.318 271.193 188.527C270.644 192.918 271.742 191.272 271.742 191.272V195.116L270.644 189.076L260.5 149.5C260 147.5 259.5 145.5 259.115 145.155C254.801 141.7 251.275 140.645 248.267 139.746C245.466 138.908 243.115 138.205 240.997 135.822C238.758 133.303 237.227 133.21 235.748 133.12C230.258 135.316 200.467 117.241 198.82 113.947C197.173 110.653 190.036 110.654 184.546 112.849C180.274 114.558 176.335 108.622 172.987 103.576C172.032 102.136 171.124 100.769 170.271 99.673Z" fill="{{color[0]}}" stroke="black" stroke-width="4"/>
</svg>
