<svg width="380" height="380" viewBox="0 0 380 380" fill="none" xmlns="http://www.w3.org/2000/svg">
<path d="M86.9987 90.3138C108.199 42.7137 165.667 35.163 186 37.3297C240.4 38.9297 270.667 80.663 275.5 101.33C258.7 112.93 183.5 114.83 160.5 114.33C169.3 121.13 191.5 120.83 196.5 119.83C173.7 140.63 132.833 150.496 113.5 153.33C118.333 174.163 132.223 219.119 130.482 227.577C128.478 237.316 134.199 246.349 138.288 258.244L125.075 236.562C125.075 236.562 100.35 271.525 78.5156 244.174C56.6813 216.823 82.7222 207.046 99.3348 199.558C85.6169 160.904 65.7989 137.914 86.9987 90.3138Z" fill="{{color[0]}}" stroke="black" stroke-width="4"/>
<path d="M98.5 200L99.3342 199.566C99.3342 199.566 112.204 212.889 114.962 216.336C117.72 219.784 125.535 235.413 125.535 235.413L124.5 237.5C124.5 237.5 115.833 219.5 113 216.5C104.5 207.5 98.5 200 98.5 200Z" fill="#C4C4C4"/>
</svg>
