<svg width="381" height="380" viewBox="0 0 381 380" fill="none" xmlns="http://www.w3.org/2000/svg">
<path d="M82.4571 215.282C72.4571 222.782 71.0259 211.782 77.8762 202.078C77.8762 202.078 99.8094 150.546 93.6847 129.11C86.1847 102.86 111.782 68.2327 111.782 68.2327C142.282 32.2327 181.282 47.9991 181.282 47.9991C181.282 47.9991 217.782 32.4991 253.282 64.4991C289.474 97.1234 253.301 88.4991 273.301 94.4991C278.052 95.9245 278.256 102.7 273.301 110.851C261.683 129.963 274.828 110.757 278.61 131.413C282.239 151.232 294.093 207.726 305.895 210.814C305.895 210.814 290.169 210.314 282.169 210.814C274.169 211.314 270.922 162.084 265.782 153.043C258.081 139.499 263.383 133.499 257.383 120.499C251.383 107.499 258.92 131.413 246.92 131.413C246.92 110.213 246.506 108.245 241.339 102.079C233.173 107.579 222.822 119.577 217.622 106.377C211.122 89.8769 220.088 117.999 206.088 117.999C171.088 117.999 171.163 122.851 177.163 110.851C183.163 98.8514 168.365 97.9991 164.337 102.079C156.605 109.91 160.337 116.166 164.337 120.499C153.504 120.499 135.082 128.399 136.282 117.999C133.345 128.069 127.238 127.928 117.668 135.305C119.001 145.972 123.451 221.46 123.451 238.899C123.451 253.13 90.6662 238.899 74.6211 238.899C81.5816 233.727 90.6525 209.136 82.4571 215.282Z" fill="{{color[0]}}"/>
<path d="M117.668 135.305C119.001 145.972 123.451 221.46 123.451 238.899C123.451 253.13 90.6662 238.899 74.6211 238.899C81.5816 233.727 90.6525 209.136 82.4571 215.282C72.4571 222.782 71.0259 211.782 77.8762 202.078C77.8762 202.078 99.8094 150.546 93.6847 129.11M136.282 117.999C132.782 129.999 124.782 127.499 111.782 140.499C108.348 143.932 109.445 149.278 108.782 150.999C108.782 150.999 104.282 152.499 99.2818 139.499L93.6847 129.11M136.282 117.999C139.782 105.999 126.282 90.4195 136.282 90.4195M136.282 117.999C135.082 128.399 153.504 120.499 164.337 120.499C160.337 116.166 156.605 109.91 164.337 102.079C168.365 97.9991 183.163 98.8514 177.163 110.851C171.163 122.851 171.088 117.999 206.088 117.999C220.088 117.999 211.122 89.8769 217.622 106.377C222.822 119.577 233.173 107.579 241.339 102.079C246.506 108.245 246.92 110.213 246.92 131.413C258.92 131.413 251.383 107.499 257.383 120.499C263.383 133.499 258.081 139.499 265.782 153.043C270.922 162.084 274.169 211.314 282.169 210.814C290.169 210.314 305.895 210.814 305.895 210.814C294.093 207.726 282.239 151.232 278.61 131.413C274.828 110.757 261.683 129.963 273.301 110.851C278.256 102.7 278.052 95.9245 273.301 94.4991C253.301 88.4991 289.474 97.1234 253.282 64.4991C217.782 32.4991 181.282 47.9991 181.282 47.9991C181.282 47.9991 142.282 32.2327 111.782 68.2327C111.782 68.2327 86.1847 102.86 93.6847 129.11" stroke="black" stroke-width="4"/>
</svg>
