<svg width="381" height="390" viewBox="0 0 381 390" fill="none" xmlns="http://www.w3.org/2000/svg">
<path d="M154.607 119.73C141.788 149.827 113.644 157.737 110.869 164.547C109.167 168.726 120.583 177.748 99.163 182.978C95.2057 186.806 93.1851 194.177 93.1851 199.915C93.1851 210.296 100.906 225.57 122.576 218.098C147.099 236.526 169.904 272.384 134.957 306.342C123.974 320.57 149.087 334.52 161.265 343.507C161.265 343.507 126.201 342.219 119.015 334.552C130.25 363.334 116.351 384.111 116.351 384.111C116.351 384.111 108.076 333.469 82.5197 329.991C74.7144 349.685 100.469 365.524 100.469 365.524C100.469 365.524 62.1721 366.765 61.4638 349.462C57.143 349.638 62.2834 369.484 62.2834 369.484C62.2834 369.484 47.8571 363.644 45.02 348.298C42.1829 332.951 60.7036 319.336 59.609 304.146C58.5143 288.956 37.1756 280.338 36.4604 262.914C35.7451 245.49 62.9384 224.934 62.3392 210.296C61.7401 195.657 53.9316 198.358 54.3381 191.911C54.7447 185.464 61.072 179.101 61.072 179.101C61.072 179.101 61.6046 155.984 62.8635 146.809C64.1225 137.634 76.2918 124.359 82.035 124.124C55.0214 79.4512 107.207 48.0779 119.916 44.6622C132.624 41.2465 130.855 44.6552 132.624 46.7243C163.736 22.8676 184.422 33.3113 187.009 32.2229C229.604 16.3246 238.276 50.811 239.149 52.4092C274.741 50.9523 270.57 73.8341 270.851 80.6839C288.537 79.96 287.259 123.625 287.785 125.631C333.436 172.818 310.14 194.65 306.485 208.381C310.881 245.297 354.693 253.769 317.449 297.327C341.121 333.454 317.189 347.17 317.189 347.17C317.189 347.17 313.886 313.284 298.409 321.154C291.564 331.834 296.174 337.505 299.768 350.455C304.975 369.215 266.018 380.511 266.018 380.511C266.018 380.511 285.732 370.325 286.603 362.443C289.787 348.046 260.065 335.608 258.659 322.781C249.486 333.835 252.297 341.8 257.604 347.065C265.466 351.96 271.591 355.174 271.591 355.174C271.591 355.174 263.206 352.624 257.604 347.065C244.521 338.921 226.63 326.124 224.145 315.743C220.167 299.123 219.234 302.103 218.355 291.952C217.477 281.801 237.059 279.093 247.58 269.936C258.101 260.779 273.108 245.379 273.108 219.627C273.108 202.821 260.777 138.154 245.426 99.593C239.3 98.2552 239.149 133.856 239.149 133.856C239.149 133.856 215.268 112.172 210.699 110.734C206.13 109.295 210.699 141.838 210.699 141.838C210.699 141.838 177.832 121.415 176.939 99.593C168.507 96.0527 161.921 138.154 161.921 138.154L154.607 119.73Z" fill="{{color[0]}}" stroke="black" stroke-width="4"/>
</svg>
