<svg width="381" height="380" viewBox="0 0 381 380" fill="none" xmlns="http://www.w3.org/2000/svg">
<path d="M113.656 154.577C110.46 156.411 110.473 168.334 110.549 174.298C110.626 180.261 105.086 168.334 100.342 168.334C101.706 164.623 92.3345 157.787 90.5787 154.577C88.8229 151.367 86.2558 153.954 84.8095 150.744C83.3633 147.534 84.8095 141.654 84.8095 138.527C84.8095 135.399 73.5619 121.148 80.815 114.222C76.8204 109.739 84.8095 91.7519 84.8095 91.7519C84.8095 91.7519 82.8219 75.9516 90.5787 72.4915C90.9075 67.1641 90.5787 59.1928 100.342 59.1928C99.3418 56.8887 101.736 47.2697 110.549 47.2697C111.784 28.7191 127.183 28.4335 131.851 24.7993C136.519 21.1652 141.95 15.6897 149.159 17.9207C156.368 20.1516 160.984 14.6657 164.042 13.8328C167.1 12.9999 171.831 12.8189 183.602 15.6807C187.237 15.0249 190.855 14.5422 196.201 15.1706C201.456 15.7883 211.974 20.2848 213.863 21.0923L213.952 21.1306C215.568 21.8207 221.145 21.4541 222.828 21.1306C224.511 20.8072 230.512 20.7729 233.108 21.8207C235.705 22.8686 240.109 27.3412 243.304 28.8086C243.968 29.1135 245.283 38.0434 251.231 38.8959C254.244 40.6008 257.095 44.2823 260.78 51.2563C264.464 58.2304 268.309 61.7698 268.309 61.7698C272.003 68.7315 269.872 71.8571 272.003 74.2724C275.697 82.9389 274.77 83.1333 277.686 83.6493C280.603 84.1652 280.67 88.5631 280.67 91.3213C282.593 96.503 280.191 98.2155 283.938 107.518C283.938 115.254 283.085 116.22 283.085 121.867C283.085 127.515 281.731 130.479 277.686 134.228C279.158 139.928 277.027 145.477 275.555 145.477C270.23 145.477 271.092 173.859 268.43 173.859C266.299 173.859 266.873 172.499 265.265 167.77V159.626L263.657 151.367C261.882 151.061 261.114 146.107 261.114 145.477C255.666 129.313 257.384 117.28 251.231 114.222C248.568 114.222 243.242 111.987 239.248 106.427C233.923 102.757 225.861 101.4 219.278 102.757C212.463 99.5679 205.764 94.6817 190.431 102.757C181.556 99.8216 170.497 102.757 164.692 106.427H149.159C141.732 116.669 129.632 114.222 129.632 114.222C129.632 114.222 121.644 116.517 122.088 124.313C122.443 130.549 116.614 137.917 113.656 140.821C114.987 144.642 116.851 152.743 113.656 154.577Z" fill="{{color[0]}}" stroke="black" stroke-width="4"/>
<path d="M124.775 89.8027C127.215 84.4659 129.756 83.5022 130.722 83.6875M102.668 95.3628C102.668 95.3628 109.834 98.8373 109.834 101.339C109.834 103.841 110.901 101.478 111.511 103.146C112.121 104.814 109.834 108.427 109.834 108.427M134.991 53.6679C134.991 53.6679 141.089 53.6679 138.345 57.5594M158.013 57.5594C158.013 57.5594 160.605 53.6679 162.587 56.308M100.686 120.935C100.686 120.935 95.6543 128.023 102.668 131.915M102.668 143.867C102.668 143.867 100.686 148.037 107.242 148.732M249.632 51.2988C249.632 51.2988 254.809 57.5594 251.155 62.1241M269.12 91.8244C269.12 91.8244 269.12 98.4862 265.466 98.4862H255.722M276.428 104.87C276.428 104.87 280.691 110.699 277.951 114.863C275.21 119.027 274.967 115.002 273.992 117.639M210.446 82.5813C210.446 82.5813 216.246 87.869 218.823 86.3997C221.401 84.9303 218.018 80.2303 218.823 77.7344C219.628 75.2385 226.556 76.8549 228.489 75.2385C230.423 73.622 223.334 68.6299 223.334 68.6299M199.168 63.6355C200.778 60.1114 205.29 60.6976 206.901 59.2296C208.511 57.7616 206.095 54.8239 206.095 54.8239M178.78 42.0308C179.296 41.6783 183.464 39.9655 184.828 40.7257C186.192 41.486 180.729 43.9075 181.57 44.2757C182.412 44.6439 185.515 41.4655 187.084 42.6349C188.653 43.8043 186.322 47.0262 182.412 46.5997M158.528 86.0781C158.528 86.0781 162.581 87.3482 165.24 86.0781C167.9 84.8081 165.114 82.499 166.507 81.3445C167.9 80.1899 172.966 83.8845 175.246 81.3445C177.526 78.8044 173.473 73.8398 173.473 73.8398" stroke="black" stroke-opacity="0.3" stroke-width="4"/>
</svg>
