<svg width="381" height="380" viewBox="0 0 381 380" fill="none" xmlns="http://www.w3.org/2000/svg">
<path fill-rule="evenodd" clip-rule="evenodd" d="M227.133 74.2252C225.931 75.155 224.886 76.7636 224.295 79.3453C224.117 80.1159 224.306 80.8858 224.745 81.4733C224.447 88.2166 226.335 99.2434 229.721 108.204C231.904 113.983 234.751 118.892 237.903 121.486C239.825 123.068 242.024 124.652 244.205 124.861C246.681 127.084 249.63 129.183 253.163 131.356C253.326 131.456 253.492 131.56 253.663 131.666C254.927 132.453 256.395 133.366 257.904 133.814C259.486 134.284 261.112 134.305 262.701 133.598C264.672 132.722 265.846 130.532 265.888 127.499C265.952 122.943 263.59 116.138 262.919 114.308C262.454 113.045 247.883 86.0985 237.63 76.8209C236.7 75.9795 235.793 75.2738 234.925 74.715C233.905 73.9601 232.801 73.4691 231.611 73.2626C230.936 73.1254 230.292 73.0987 229.682 73.1744C229.619 73.1791 229.556 73.1844 229.493 73.1905C228.621 73.2742 227.822 73.6072 227.133 74.2252Z" fill="black"/>
<path fill-rule="evenodd" clip-rule="evenodd" d="M102.752 161.593C101.058 161.167 99.5443 160.159 98.2658 158.606C98.0861 158.388 97.9237 158.193 97.7745 158.014L97.7735 158.012C96.613 156.62 96.244 156.178 94.639 152.966C89.886 143.455 90.6772 126.458 94.6391 115.456C97.4769 107.579 105.8 94.5763 110.86 91.1147C111.679 90.4872 112.388 89.917 113 89.4246L113 89.4244L113 89.4244C113.473 89.0439 113.888 88.71 114.251 88.4321C114.314 88.3715 114.378 88.3133 114.443 88.2576C114.75 87.9962 115.105 87.7787 115.504 87.6157C115.547 87.5968 115.589 87.5804 115.63 87.5666C116.404 87.2786 117.335 87.191 118.386 87.3761C119.705 87.6089 121.336 88.341 122.878 89.4233C123.978 89.7572 125.043 90.1963 125.875 90.6611C127.06 91.3232 127.833 92.1251 128.152 92.7108C132.056 99.8856 134.028 107.672 132.955 115.912C132.617 118.51 131.547 121.82 130.333 125.245C130.536 135.754 127.949 145.906 118.818 154.354C117.351 155.544 116.12 156.616 115.041 157.557C111.351 160.771 109.42 162.454 105.818 162.081C104.8 162.423 103.911 162.263 103.228 161.921C103.127 161.871 102.949 161.761 102.752 161.593Z" fill="black"/>
</svg>
