<svg width="381" height="380" viewBox="0 0 381 380" fill="none" xmlns="http://www.w3.org/2000/svg">
<path d="M150.484 135.61C150.484 135.61 114.847 133.623 110.887 139.706C106.928 145.788 120.786 208.602 125.736 232.855C130.686 257.108 150.484 258.717 143.021 303.291C136.454 342.509 151.021 359.246 154.616 362.702C155.114 363.161 155.393 363.399 155.393 363.399C155.393 363.399 155.107 363.174 154.616 362.702C150.51 358.919 131.539 340.069 131.539 314.772C131.539 314.772 126.872 356.222 138.353 367.426C149.834 378.63 73.5187 363.399 66.7049 357.266C59.891 351.134 88.6777 316.912 80.0195 273.595C71.3612 230.278 61.6395 151.115 80.0195 121.392C75.0987 60.3019 155.752 18.6856 209.644 54.1586C247.679 54.1586 276.457 120.068 276.457 166.001C276.457 272.771 261.779 316.65 299.561 344.294C313.922 352.194 241.09 367.426 241.09 367.426C241.09 367.426 210.745 282.008 226.967 282.008C282.725 262.224 266.304 172.373 254.92 123.867C227.697 135.61 175.197 135.61 175.197 135.61L168.797 112.978V135.61H155.393L150.484 121.392V135.61Z" fill="{{color[0]}}" stroke="black" stroke-width="4"/>
</svg>
