<svg width="380" height="380" viewBox="0 0 380 380" fill="none" xmlns="http://www.w3.org/2000/svg">
<path d="M243.921 218.33C243.75 216.262 241.637 215.111 239.845 215.817C235.616 217.483 221.627 222.783 211.763 224.14C200.94 225.628 184.551 223.82 179.806 223.231C177.877 222.992 176.157 224.65 176.49 226.665C177.142 230.607 178.484 234.408 180.459 237.891C182.661 241.775 185.607 245.187 189.128 247.933C192.649 250.678 196.676 252.704 200.98 253.893C205.283 255.082 209.779 255.412 214.21 254.864C218.641 254.316 222.921 252.9 226.805 250.698C230.689 248.495 234.101 245.55 236.847 242.029C239.593 238.508 241.618 234.481 242.807 230.177C243.873 226.321 244.249 222.31 243.921 218.33Z" fill="#171921" stroke="#171921" stroke-width="4"/>
<mask id="mask0" mask-type="alpha" maskUnits="userSpaceOnUse" x="178" y="217" width="65" height="37">
<path d="M241.793 217.192C242.309 221.362 241.999 225.594 240.88 229.644C239.76 233.695 237.854 237.485 235.27 240.799C232.686 244.113 229.474 246.885 225.819 248.958C222.163 251.031 218.135 252.363 213.965 252.879C209.794 253.395 205.563 253.084 201.512 251.965C197.462 250.846 193.671 248.94 190.358 246.356C187.044 243.771 184.271 240.56 182.199 236.904C180.126 233.249 178.794 229.221 178.278 225.05L241.793 217.192Z" fill="#171921"/>
</mask>
<g mask="url(#mask0)">
<circle cx="214.522" cy="257.314" r="21.5" transform="rotate(-7.05286 214.522 257.314)" fill="#FC909F"/>
</g>
</svg>
