<svg width="380" height="380" viewBox="0 0 380 380" fill="none" xmlns="http://www.w3.org/2000/svg">
<path d="M157.5 200.5C141.9 200.1 139.667 188.333 140.5 182.5C143.3 184.5 174.5 181.833 187.5 181C189 188.5 184 191.5 184 191.5C184 191.5 177 201 157.5 200.5Z" fill="white"/>
<path d="M244.15 191.5C228.55 191.1 226.317 179.333 227.15 173.5C229.95 175.5 256.5 173.833 269.5 173C271 180.5 266.5 184 266.5 184C266.5 184 263.65 192 244.15 191.5Z" fill="white"/>
<path d="M145.5 191.5C151 180 161.5 184.5 161.5 195C160.086 198.775 145.5 201 145.5 191.5Z" fill="#0B0B0B" stroke="black" stroke-width="4"/>
<path d="M133.991 182.875C143.464 185.401 167.611 188.389 188.422 180.13M137.914 181.823C146.638 183.971 168.693 185.998 187.123 176.93" stroke="black" stroke-width="3"/>
<path d="M151.946 168.504C156.762 163.84 169.299 159.311 180.917 178.5M139.857 183.971C140.332 187.947 141.347 194.317 149.085 197.166C159.5 201 161 200 178.5 195.5" stroke="black" stroke-width="4"/>
<path d="M234 180C236.726 175.718 252.5 174.5 245 187.5C239 190 231.274 184.282 234 180Z" fill="#0B0B0B" stroke="black" stroke-width="4"/>
<path d="M220.5 172.671C228.676 175.077 251.875 179.384 270.144 172.671M227.271 172.671C234.804 174.731 253.926 176.985 270.144 169.515" stroke="black" stroke-width="3"/>
<path d="M235.034 157.5C239.732 154.05 253.5 162 260 173M229 173C228.942 176.48 229.15 182.604 235.034 186.699C241.671 191.318 247 191.5 260 188.5" stroke="black" stroke-width="4"/>
</svg>
