<svg width="380" height="380" viewBox="0 0 380 380" fill="none" xmlns="http://www.w3.org/2000/svg">
<path d="M226.871 179.732C227.436 181.938 229.573 183.811 233.144 184.816C236.672 185.808 241.307 185.844 246.181 184.596C251.054 183.349 255.102 181.091 257.719 178.526C260.368 175.929 261.343 173.259 260.778 171.054C260.214 168.848 258.077 166.975 254.505 165.97C250.977 164.978 246.343 164.942 241.469 166.19C236.596 167.437 232.548 169.695 229.931 172.26C227.281 174.857 226.307 177.527 226.871 179.732Z" fill="white" stroke="black" stroke-width="3"/>
<ellipse rx="12" ry="9.5" transform="matrix(-0.968769 0.247967 0.247967 0.968769 240.701 175.909)" fill="black"/>
<path d="M265.954 158.936C265.195 161.364 262.805 166.443 259.316 167.329" stroke="black" stroke-width="4"/>
<path d="M151.401 186.312C153.239 195.481 162.387 201.448 171.9 199.542C181.414 197.635 187.556 188.603 185.718 179.434C183.881 170.265 174.733 164.298 165.219 166.205C155.705 168.111 149.563 177.143 151.401 186.312Z" fill="white" stroke="black" stroke-width="3"/>
<circle r="11" transform="matrix(-0.980501 0.196513 0.196513 0.980501 161.947 182.947)" fill="black"/>
<path d="M146 166.997C146.982 171.899 148.571 172.703 152.573 174.348" stroke="black" stroke-width="4"/>
</svg>
