<svg width="380" height="380" viewBox="0 0 380 380" fill="none" xmlns="http://www.w3.org/2000/svg">
<path d="M183.5 183.5C183.5 192.851 175.703 200.5 166 200.5C156.297 200.5 148.5 192.851 148.5 183.5C148.5 174.149 156.297 166.5 166 166.5C175.703 166.5 183.5 174.149 183.5 183.5Z" fill="white" stroke="black" stroke-width="3"/>
<path d="M260.5 175.5C260.5 184.851 252.703 192.5 243 192.5C233.297 192.5 225.5 184.851 225.5 175.5C225.5 166.149 233.297 158.5 243 158.5C252.703 158.5 260.5 166.149 260.5 175.5Z" fill="white" stroke="black" stroke-width="3"/>
<ellipse cx="162.5" cy="183" rx="15.5" ry="15" fill="black"/>
<ellipse cx="239.5" cy="175" rx="15.5" ry="15" fill="black"/>
</svg>
