<svg width="380" height="380" viewBox="0 0 380 380" fill="none" xmlns="http://www.w3.org/2000/svg">
<rect width="100%" height="100%" fill="{{color[0]}}" />
<g clip-path="url(#clip0)">
<path d="M34.7093 114.914L58.1619 45.2885" stroke="#E21F1F" stroke-width="18.48" stroke-linejoin="round"/>
<path d="M26.1775 109.097L44.2278 116.022" stroke="#EFE95E" stroke-width="12.32"/>
<path d="M45.0401 52.5315L63.9914 58.9871" stroke="#EFE95E" stroke-width="6.16"/>
<path d="M108.874 100.197L54.7958 50.4653" stroke="#E21F1F" stroke-width="18.48" stroke-linejoin="round"/>
<path d="M100.091 105.627L113.756 91.9511" stroke="#EFE95E" stroke-width="12.32"/>
<path d="M56.0789 65.3982L69.6812 50.7079" stroke="#EFE95E" stroke-width="6.16"/>
<path d="M-13.9092 90.0512L59.8704 49.9674" stroke="#E21F1F" stroke-width="21.12" stroke-linejoin="round"/>
<path d="M-16.533 78.5454L-6.79814 98.3801" stroke="#EFE95E" stroke-width="14.08"/>
<path d="M43.248 45.8318L54.1023 65.9741" stroke="#EFE95E" stroke-width="7.04"/>
<path d="M69.5579 125.282L52.8283 43.0006" stroke="#E21F1F" stroke-width="21.12" stroke-linejoin="round"/>
<path d="M57.7882 124.423L79.6037 120.921" stroke="#EFE95E" stroke-width="14.08"/>
<path d="M44.0078 57.6841L66.4452 53.2017" stroke="#EFE95E" stroke-width="7.04"/>
<path d="M45.2537 73.9399L63.16 2.68599" stroke="#E21F1F" stroke-width="18.48" stroke-linejoin="round"/>
<path d="M36.291 68.812L54.8298 74.2963" stroke="#EFE95E" stroke-width="12.32"/>
<path d="M50.6485 10.9382L70.0486 15.884" stroke="#EFE95E" stroke-width="6.16"/>
<path d="M-5.16907 52.9758L65.2309 7.21582" stroke="#E21F1F" stroke-width="21.12" stroke-linejoin="round"/>
<path d="M-8.68915 41.7119L2.57485 60.7199" stroke="#EFE95E" stroke-width="14.08"/>
<path d="M48.3349 4.3999L60.7392 23.6266" stroke="#EFE95E" stroke-width="7.04"/>
<path d="M80.8098 81.5359L57.6634 0.824219" stroke="#E21F1F" stroke-width="21.12" stroke-linejoin="round"/>
<path d="M69.0087 81.6045L90.4815 76.3983" stroke="#EFE95E" stroke-width="14.08"/>
<path d="M50.0246 16.1558L72.0402 9.92336" stroke="#EFE95E" stroke-width="7.04"/>
<path d="M80.4818 167.661L61.554 96.6712" stroke="#E21F1F" stroke-width="18.48" stroke-linejoin="round"/>
<path d="M70.1567 167.527L89.0273 163.324" stroke="#EFE95E" stroke-width="12.32"/>
<path d="M54.6202 109.959L73.9826 104.867" stroke="#EFE95E" stroke-width="6.16"/>
<path d="M26.2216 173.804L65.5635 99.6265" stroke="#E21F1F" stroke-width="21.12" stroke-linejoin="round"/>
<path d="M17.6768 165.665L36.7507 176.816" stroke="#EFE95E" stroke-width="14.08"/>
<path d="M49.4242 105.365L69.6012 116.155" stroke="#EFE95E" stroke-width="7.04"/>
<path d="M115.256 157.045L55.8446 97.7118" stroke="#E21F1F" stroke-width="21.12" stroke-linejoin="round"/>
<path d="M104.971 162.832L121.218 147.859" stroke="#EFE95E" stroke-width="14.08"/>
<path d="M56.607 114.824L72.8307 98.6892" stroke="#EFE95E" stroke-width="7.04"/>
<path d="M3.90349 142.015L56.7794 114.247" stroke="#E21F1F" stroke-width="15.0225" stroke-linejoin="round"/>
<path d="M2.15281 133.806L8.87742 148.011" stroke="#EFE95E" stroke-width="10.015"/>
<path d="M44.9987 111.139L52.5164 125.574" stroke="#EFE95E" stroke-width="5.00751"/>
<path d="M23.332 230.27L42.2598 159.28" stroke="#E21F1F" stroke-width="18.48" stroke-linejoin="round"/>
<path d="M33.9381 227.381L15.0675 223.178" stroke="#EFE95E" stroke-width="12.32"/>
<path d="M49.4745 169.813L30.1121 164.721" stroke="#EFE95E" stroke-width="6.16"/>
<path d="M76.3118 219.378L36.9699 145.2" stroke="#E21F1F" stroke-width="21.12" stroke-linejoin="round"/>
<path d="M88.6698 211.425L69.5958 222.577" stroke="#EFE95E" stroke-width="14.08"/>
<path d="M56.9223 151.125L36.7453 161.915" stroke="#EFE95E" stroke-width="7.04"/>
<path d="M-7.66834 202.47L51.7429 143.137" stroke="#E21F1F" stroke-width="21.12" stroke-linejoin="round"/>
<path d="M2.61638 208.257L-13.6307 193.284" stroke="#EFE95E" stroke-width="14.08"/>
<path d="M50.9805 160.249L34.7569 144.114" stroke="#EFE95E" stroke-width="7.04"/>
<path d="M83.9401 192.152L48.0132 144.442" stroke="#E21F1F" stroke-width="15.0225" stroke-linejoin="round"/>
<path d="M89.0328 185.479L76.8806 195.445" stroke="#EFE95E" stroke-width="10.015"/>
<path d="M59.9919 146.669L47.0244 156.504" stroke="#EFE95E" stroke-width="5.00751"/>
<path d="M142.36 179.52L144.731 186.817H152.403L146.196 191.326L148.567 198.623L142.36 194.114L136.153 198.623L138.524 191.326L132.317 186.817H139.989L142.36 179.52Z" fill="#FFE661"/>
<path d="M108.92 264L111.291 271.297H118.963L112.756 275.806L115.127 283.103L108.92 278.594L102.713 283.103L105.084 275.806L98.8768 271.297H106.549L108.92 264Z" fill="#FFE661"/>
<path d="M26.2 285.12L28.5709 292.417H36.2432L30.0362 296.926L32.407 304.223L26.2 299.713L19.993 304.223L22.3639 296.926L16.1569 292.417H23.8292L26.2 285.12Z" fill="#FFE661"/>
<path d="M152.92 19.3599L155.291 26.6566H162.963L156.756 31.1663L159.127 38.4631L152.92 33.9534L146.713 38.4631L149.084 31.1663L142.877 26.6566H150.549L152.92 19.3599Z" fill="#FFE661"/>
<path d="M356.736 163.468L378.056 100.171" stroke="#E21F1F" stroke-width="16.8" stroke-linejoin="round"/>
<path d="M348.98 158.18L365.389 164.475" stroke="#EFE95E" stroke-width="11.2"/>
<path d="M366.127 106.756L383.356 112.625" stroke="#EFE95E" stroke-width="5.6"/>
<path d="M424.159 150.089L374.996 104.878" stroke="#E21F1F" stroke-width="16.8" stroke-linejoin="round"/>
<path d="M376.163 118.453L388.529 105.098" stroke="#EFE95E" stroke-width="5.6"/>
<path d="M312.537 140.865L379.61 104.425" stroke="#E21F1F" stroke-width="19.2" stroke-linejoin="round"/>
<path d="M310.152 130.405L319.002 148.437" stroke="#EFE95E" stroke-width="12.8"/>
<path d="M364.498 100.666L374.366 118.977" stroke="#EFE95E" stroke-width="6.4"/>
<path d="M388.416 172.893L373.208 98.0915" stroke="#E21F1F" stroke-width="19.2" stroke-linejoin="round"/>
<path d="M377.716 172.111L397.549 168.928" stroke="#EFE95E" stroke-width="12.8"/>
<path d="M365.189 111.44L385.587 107.365" stroke="#EFE95E" stroke-width="6.4"/>
<path d="M366.321 126.218L382.6 61.4419" stroke="#E21F1F" stroke-width="16.8" stroke-linejoin="round"/>
<path d="M358.174 121.556L375.027 126.542" stroke="#EFE95E" stroke-width="11.2"/>
<path d="M371.226 68.9438L388.862 73.44" stroke="#EFE95E" stroke-width="5.6"/>
<path d="M320.483 107.16L384.483 65.5601" stroke="#E21F1F" stroke-width="19.2" stroke-linejoin="round"/>
<path d="M317.283 96.9199L327.523 114.2" stroke="#EFE95E" stroke-width="12.8"/>
<path d="M369.123 63L380.399 80.4788" stroke="#EFE95E" stroke-width="6.4"/>
<path d="M398.645 133.124L377.603 59.7495" stroke="#E21F1F" stroke-width="19.2" stroke-linejoin="round"/>
<path d="M370.659 73.687L390.673 68.0212" stroke="#EFE95E" stroke-width="6.4"/>
<path d="M398.347 211.419L381.14 146.883" stroke="#E21F1F" stroke-width="16.8" stroke-linejoin="round"/>
<path d="M374.837 158.963L392.439 154.334" stroke="#EFE95E" stroke-width="5.6"/>
<path d="M349.02 217.004L384.785 149.57" stroke="#E21F1F" stroke-width="19.2" stroke-linejoin="round"/>
<path d="M341.252 209.604L358.592 219.742" stroke="#EFE95E" stroke-width="12.8"/>
<path d="M370.113 154.787L388.456 164.595" stroke="#EFE95E" stroke-width="6.4"/>
<path d="M429.96 201.768L375.95 147.829" stroke="#E21F1F" stroke-width="19.2" stroke-linejoin="round"/>
<path d="M376.643 163.385L391.392 148.718" stroke="#EFE95E" stroke-width="6.4"/>
<path d="M328.73 188.105L376.799 162.861" stroke="#E21F1F" stroke-width="13.6568" stroke-linejoin="round"/>
<path d="M327.139 180.642L333.252 193.555" stroke="#EFE95E" stroke-width="9.10456"/>
<path d="M366.09 160.036L372.924 173.158" stroke="#EFE95E" stroke-width="4.55228"/>
<path d="M346.393 268.336L363.6 203.8" stroke="#E21F1F" stroke-width="16.8" stroke-linejoin="round"/>
<path d="M356.034 265.71L338.879 261.889" stroke="#EFE95E" stroke-width="11.2"/>
<path d="M370.158 213.375L352.556 208.746" stroke="#EFE95E" stroke-width="5.6"/>
<path d="M394.556 258.435L358.791 191" stroke="#E21F1F" stroke-width="19.2" stroke-linejoin="round"/>
<path d="M376.929 196.387L358.587 206.196" stroke="#EFE95E" stroke-width="6.4"/>
<path d="M318.211 243.064L372.221 189.124" stroke="#E21F1F" stroke-width="19.2" stroke-linejoin="round"/>
<path d="M327.56 248.325L312.79 234.712" stroke="#EFE95E" stroke-width="12.8"/>
<path d="M371.528 204.681L356.779 190.013" stroke="#EFE95E" stroke-width="6.4"/>
<path d="M401.491 233.683L368.83 190.311" stroke="#E21F1F" stroke-width="13.6568" stroke-linejoin="round"/>
<path d="M379.72 192.336L367.931 201.276" stroke="#EFE95E" stroke-width="4.55228"/>
<path d="M246.6 202.2L248.755 208.833H255.73L250.087 212.933L252.243 219.567L246.6 215.467L240.957 219.567L243.113 212.933L237.47 208.833H244.445L246.6 202.2Z" fill="#FFE661"/>
<path d="M349 318.2L351.155 324.833H358.13L352.487 328.933L354.643 335.567L349 331.467L343.357 335.567L345.513 328.933L339.87 324.833H346.845L349 318.2Z" fill="#FFE661"/>
<path d="M286.2 156.6L288.984 165.168H297.993L290.705 170.464L293.489 179.032L286.2 173.736L278.911 179.032L281.695 170.464L274.407 165.168H283.416L286.2 156.6Z" fill="#FFE661"/>
</g>
<defs>
<clipPath id="clip0">
<rect width="380" height="380" fill="white"/>
</clipPath>
</defs>
</svg>
