<svg width="380" height="380" viewBox="0 0 380 380" fill="none" xmlns="http://www.w3.org/2000/svg">
<rect width="100%" height="100%" fill="{{color[0]}}" />
<g clip-path="url(#clip0)">
<rect x="-52.8232" y="117.184" width="198" height="198" transform="rotate(-45 -52.8232 117.184)" fill="#E21F1F" stroke="black" stroke-width="0.25"/>
<rect x="-33.3358" y="117.184" width="170.487" height="170.487" transform="rotate(-45 -33.3358 117.184)" stroke="#FFE661" stroke-width="2"/>
<path d="M47.125 156.184C45.9583 156.184 44.9583 156.601 44.125 157.434C43.2917 158.351 42.875 159.392 42.875 160.559V168.059C42.875 168.892 43.2917 169.559 44.125 170.059C44.9583 170.642 45.9583 170.934 47.125 170.934H50.125C51.375 170.934 52.4167 170.767 53.25 170.434C54.0833 170.184 54.5 169.809 54.5 169.309C54.5 168.892 54.9167 168.517 55.75 168.184C56.5833 167.934 57.625 167.809 58.875 167.809H68.125C69.2917 167.809 70.2917 167.351 71.125 166.434C72.0417 165.601 72.5 164.601 72.5 163.434V160.559C72.5 159.392 72.0417 158.351 71.125 157.434C70.2917 156.601 69.2917 156.184 68.125 156.184H47.125ZM126.125 163.809C126.125 162.559 125.708 161.517 124.875 160.684C124.042 159.851 123 159.434 121.75 159.434H81.125C79.9583 159.434 78.9167 159.851 78 160.684C77.1667 161.517 76.75 162.559 76.75 163.809V166.684C76.75 167.851 77.1667 168.851 78 169.684C78.9167 170.517 79.9583 170.934 81.125 170.934H121.75C123 170.934 124.042 170.517 124.875 169.684C125.708 168.851 126.125 167.851 126.125 166.684V163.809ZM81.125 118.684C79.9583 118.684 78.9167 119.101 78 119.934C77.1667 120.851 76.75 121.934 76.75 123.184V150.059C76.75 151.226 77.1667 152.226 78 153.059C78.9167 153.976 79.9583 154.434 81.125 154.434H121.75C123 154.434 124.042 153.976 124.875 153.059C125.708 152.226 126.125 151.226 126.125 150.059V123.184C126.125 121.934 125.708 120.851 124.875 119.934C124.042 119.101 123 118.684 121.75 118.684H81.125ZM46.75 111.809C46.75 112.976 46.5417 113.976 46.125 114.809C45.7083 115.726 45.2083 116.184 44.625 116.184C44.125 116.184 43.7083 116.601 43.375 117.434C43.0417 118.267 42.875 119.309 42.875 120.559V123.309C42.875 124.476 43.2917 125.476 44.125 126.309C44.9583 127.226 45.9583 127.684 47.125 127.684H56.5C57.75 127.684 58.7917 128.101 59.625 128.934C60.4583 129.851 60.875 130.892 60.875 132.059V136.809C60.875 137.976 60.4583 138.976 59.625 139.809C58.7917 140.726 57.75 141.184 56.5 141.184H47.125C45.9583 141.184 44.9583 141.601 44.125 142.434C43.2917 143.267 42.875 144.267 42.875 145.434V148.434C42.875 149.601 43.2917 150.601 44.125 151.434C44.9583 152.267 45.9583 152.684 47.125 152.684H68.125C69.2917 152.684 70.2917 152.267 71.125 151.434C72.0417 150.601 72.5 149.601 72.5 148.434V120.559C72.5 119.309 72.0417 118.267 71.125 117.434C70.2917 116.601 69.2917 116.184 68.125 116.184H61.5C60.1667 116.184 59.125 115.934 58.375 115.434C57.625 114.934 57.25 114.351 57.25 113.684C57.25 113.017 57.625 112.434 58.375 111.934C59.125 111.517 60.1667 111.351 61.5 111.434L66.875 111.559C68.125 111.559 69.1667 111.101 70 110.184C70.8333 109.351 71.25 108.351 71.25 107.184V64.6841C71.25 63.6007 70.8333 62.6424 70 61.8091C69.1667 60.8924 68.125 60.4341 66.875 60.4341H65.25C64.0833 60.4341 63.0417 60.8924 62.125 61.8091C61.2917 62.6424 60.875 63.6007 60.875 64.6841V95.5591C60.875 96.8924 60.6667 97.8924 60.25 98.5591C59.9167 99.3091 59.5 99.6841 59 99.6841C58.5 99.6841 58.0417 99.3091 57.625 98.5591C57.2917 97.8091 57.125 96.8091 57.125 95.5591V60.5591C57.125 59.3924 56.6667 58.3924 55.75 57.5591C54.9167 56.6424 53.875 56.1841 52.625 56.1841H51C49.8333 56.1841 48.8333 56.6424 48 57.5591C47.1667 58.3924 46.75 59.3924 46.75 60.5591V111.809ZM88.25 134.809C88.25 133.559 88.6667 132.476 89.5 131.559C90.4167 130.726 91.5 130.309 92.75 130.309H110.25C111.5 130.309 112.542 130.726 113.375 131.559C114.208 132.476 114.625 133.559 114.625 134.809V138.434C114.625 139.684 114.208 140.726 113.375 141.559C112.542 142.392 111.5 142.809 110.25 142.809H92.75C91.5 142.809 90.4167 142.392 89.5 141.559C88.6667 140.726 88.25 139.684 88.25 138.434V134.809ZM81.125 56.1841C79.9583 56.1841 78.9167 56.6424 78 57.5591C77.1667 58.3924 76.75 59.3924 76.75 60.5591V109.559C76.75 110.726 77.1667 111.767 78 112.684C78.9167 113.601 79.9583 114.059 81.125 114.059H121.75C123 114.059 124.042 113.601 124.875 112.684C125.708 111.851 126.125 110.809 126.125 109.559V60.5591C126.125 59.3924 125.708 58.3924 124.875 57.5591C124.042 56.6424 123 56.1841 121.75 56.1841H81.125ZM114.5 98.0591C114.5 99.2257 114.125 100.226 113.375 101.059C112.625 101.892 111.708 102.309 110.625 102.309C109.458 102.309 108.5 101.892 107.75 101.059C107 100.226 106.625 99.2257 106.625 98.0591V95.1841C106.625 93.9341 107 92.8924 107.75 92.0591C108.5 91.2257 109.458 90.8091 110.625 90.8091C111.708 90.8091 112.625 91.2257 113.375 92.0591C114.125 92.9757 114.5 94.0174 114.5 95.1841V98.0591ZM88.25 95.1841C88.25 94.0174 88.625 92.9757 89.375 92.0591C90.2083 91.2257 91.1667 90.8091 92.25 90.8091C93.3333 90.8091 94.25 91.2257 95 92.0591C95.75 92.9757 96.125 94.0174 96.125 95.1841V98.0591C96.2083 99.3091 95.8333 100.309 95 101.059C94.25 101.809 93.3333 102.184 92.25 102.184C91.1667 102.184 90.2083 101.809 89.375 101.059C88.5417 100.309 88.1667 99.3091 88.25 98.0591V95.1841ZM110.625 67.8091C111.708 67.8091 112.625 68.2257 113.375 69.0591C114.125 69.8924 114.5 70.9341 114.5 72.1841V74.9341C114.5 76.1841 114.125 77.2257 113.375 78.0591C112.625 78.8924 111.708 79.3091 110.625 79.3091C109.458 79.3091 108.5 78.8924 107.75 78.0591C107 77.2257 106.625 76.1841 106.625 74.9341V72.1841C106.625 70.9341 107 69.8924 107.75 69.0591C108.5 68.2257 109.458 67.8091 110.625 67.8091ZM96.125 74.9341C96.125 76.2674 95.7083 77.3091 94.875 78.0591C94.125 78.8091 93.25 79.1841 92.25 79.1841C91.1667 79.1841 90.2083 78.8091 89.375 78.0591C88.625 77.3091 88.25 76.2674 88.25 74.9341V72.1841C88.25 70.8507 88.625 69.8091 89.375 69.0591C90.2083 68.3091 91.1667 67.9341 92.25 67.9341C93.25 67.9341 94.125 68.3091 94.875 69.0591C95.7083 69.8091 96.125 70.8507 96.125 72.1841V74.9341Z" fill="#FFE661"/>
<rect x="190.177" y="266.184" width="198" height="198" transform="rotate(-45 190.177 266.184)" fill="#E21F1F" stroke="black" stroke-width="0.25"/>
<rect x="209.664" y="266.184" width="170.487" height="170.487" transform="rotate(-45 209.664 266.184)" stroke="#FFE661" stroke-width="2"/>
<path d="M290.125 305.184C288.958 305.184 287.958 305.601 287.125 306.434C286.292 307.351 285.875 308.392 285.875 309.559V317.059C285.875 317.892 286.292 318.559 287.125 319.059C287.958 319.642 288.958 319.934 290.125 319.934H293.125C294.375 319.934 295.417 319.767 296.25 319.434C297.083 319.184 297.5 318.809 297.5 318.309C297.5 317.892 297.917 317.517 298.75 317.184C299.583 316.934 300.625 316.809 301.875 316.809H311.125C312.292 316.809 313.292 316.351 314.125 315.434C315.042 314.601 315.5 313.601 315.5 312.434V309.559C315.5 308.392 315.042 307.351 314.125 306.434C313.292 305.601 312.292 305.184 311.125 305.184H290.125ZM369.125 312.809C369.125 311.559 368.708 310.517 367.875 309.684C367.042 308.851 366 308.434 364.75 308.434H324.125C322.958 308.434 321.917 308.851 321 309.684C320.167 310.517 319.75 311.559 319.75 312.809V315.684C319.75 316.851 320.167 317.851 321 318.684C321.917 319.517 322.958 319.934 324.125 319.934H364.75C366 319.934 367.042 319.517 367.875 318.684C368.708 317.851 369.125 316.851 369.125 315.684V312.809ZM324.125 267.684C322.958 267.684 321.917 268.101 321 268.934C320.167 269.851 319.75 270.934 319.75 272.184V299.059C319.75 300.226 320.167 301.226 321 302.059C321.917 302.976 322.958 303.434 324.125 303.434H364.75C366 303.434 367.042 302.976 367.875 302.059C368.708 301.226 369.125 300.226 369.125 299.059V272.184C369.125 270.934 368.708 269.851 367.875 268.934C367.042 268.101 366 267.684 364.75 267.684H324.125ZM289.75 260.809C289.75 261.976 289.542 262.976 289.125 263.809C288.708 264.726 288.208 265.184 287.625 265.184C287.125 265.184 286.708 265.601 286.375 266.434C286.042 267.267 285.875 268.309 285.875 269.559V272.309C285.875 273.476 286.292 274.476 287.125 275.309C287.958 276.226 288.958 276.684 290.125 276.684H299.5C300.75 276.684 301.792 277.101 302.625 277.934C303.458 278.851 303.875 279.892 303.875 281.059V285.809C303.875 286.976 303.458 287.976 302.625 288.809C301.792 289.726 300.75 290.184 299.5 290.184H290.125C288.958 290.184 287.958 290.601 287.125 291.434C286.292 292.267 285.875 293.267 285.875 294.434V297.434C285.875 298.601 286.292 299.601 287.125 300.434C287.958 301.267 288.958 301.684 290.125 301.684H311.125C312.292 301.684 313.292 301.267 314.125 300.434C315.042 299.601 315.5 298.601 315.5 297.434V269.559C315.5 268.309 315.042 267.267 314.125 266.434C313.292 265.601 312.292 265.184 311.125 265.184H304.5C303.167 265.184 302.125 264.934 301.375 264.434C300.625 263.934 300.25 263.351 300.25 262.684C300.25 262.017 300.625 261.434 301.375 260.934C302.125 260.517 303.167 260.351 304.5 260.434L309.875 260.559C311.125 260.559 312.167 260.101 313 259.184C313.833 258.351 314.25 257.351 314.25 256.184V213.684C314.25 212.601 313.833 211.642 313 210.809C312.167 209.892 311.125 209.434 309.875 209.434H308.25C307.083 209.434 306.042 209.892 305.125 210.809C304.292 211.642 303.875 212.601 303.875 213.684V244.559C303.875 245.892 303.667 246.892 303.25 247.559C302.917 248.309 302.5 248.684 302 248.684C301.5 248.684 301.042 248.309 300.625 247.559C300.292 246.809 300.125 245.809 300.125 244.559V209.559C300.125 208.392 299.667 207.392 298.75 206.559C297.917 205.642 296.875 205.184 295.625 205.184H294C292.833 205.184 291.833 205.642 291 206.559C290.167 207.392 289.75 208.392 289.75 209.559V260.809ZM331.25 283.809C331.25 282.559 331.667 281.476 332.5 280.559C333.417 279.726 334.5 279.309 335.75 279.309H353.25C354.5 279.309 355.542 279.726 356.375 280.559C357.208 281.476 357.625 282.559 357.625 283.809V287.434C357.625 288.684 357.208 289.726 356.375 290.559C355.542 291.392 354.5 291.809 353.25 291.809H335.75C334.5 291.809 333.417 291.392 332.5 290.559C331.667 289.726 331.25 288.684 331.25 287.434V283.809ZM324.125 205.184C322.958 205.184 321.917 205.642 321 206.559C320.167 207.392 319.75 208.392 319.75 209.559V258.559C319.75 259.726 320.167 260.767 321 261.684C321.917 262.601 322.958 263.059 324.125 263.059H364.75C366 263.059 367.042 262.601 367.875 261.684C368.708 260.851 369.125 259.809 369.125 258.559V209.559C369.125 208.392 368.708 207.392 367.875 206.559C367.042 205.642 366 205.184 364.75 205.184H324.125ZM357.5 247.059C357.5 248.226 357.125 249.226 356.375 250.059C355.625 250.892 354.708 251.309 353.625 251.309C352.458 251.309 351.5 250.892 350.75 250.059C350 249.226 349.625 248.226 349.625 247.059V244.184C349.625 242.934 350 241.892 350.75 241.059C351.5 240.226 352.458 239.809 353.625 239.809C354.708 239.809 355.625 240.226 356.375 241.059C357.125 241.976 357.5 243.017 357.5 244.184V247.059ZM331.25 244.184C331.25 243.017 331.625 241.976 332.375 241.059C333.208 240.226 334.167 239.809 335.25 239.809C336.333 239.809 337.25 240.226 338 241.059C338.75 241.976 339.125 243.017 339.125 244.184V247.059C339.208 248.309 338.833 249.309 338 250.059C337.25 250.809 336.333 251.184 335.25 251.184C334.167 251.184 333.208 250.809 332.375 250.059C331.542 249.309 331.167 248.309 331.25 247.059V244.184ZM353.625 216.809C354.708 216.809 355.625 217.226 356.375 218.059C357.125 218.892 357.5 219.934 357.5 221.184V223.934C357.5 225.184 357.125 226.226 356.375 227.059C355.625 227.892 354.708 228.309 353.625 228.309C352.458 228.309 351.5 227.892 350.75 227.059C350 226.226 349.625 225.184 349.625 223.934V221.184C349.625 219.934 350 218.892 350.75 218.059C351.5 217.226 352.458 216.809 353.625 216.809ZM339.125 223.934C339.125 225.267 338.708 226.309 337.875 227.059C337.125 227.809 336.25 228.184 335.25 228.184C334.167 228.184 333.208 227.809 332.375 227.059C331.625 226.309 331.25 225.267 331.25 223.934V221.184C331.25 219.851 331.625 218.809 332.375 218.059C333.208 217.309 334.167 216.934 335.25 216.934C336.25 216.934 337.125 217.309 337.875 218.059C338.708 218.809 339.125 219.851 339.125 221.184V223.934Z" fill="#FFE661"/>
</g>
<defs>
<clipPath id="clip0">
<rect width="380" height="380" fill="white"/>
</clipPath>
</defs>
</svg>
