<svg width="380" height="380" viewBox="0 0 380 380" fill="none" xmlns="http://www.w3.org/2000/svg">
<rect width="100%" height="100%" fill="{{color[0]}}" />
<g clip-path="url(#clip0)">
<ellipse cx="61.8" cy="76.9201" rx="61.8" ry="38.28" fill="#E21F1F"/>
<path d="M52.56 38.8801C42.3599 42.7201 21.7199 87.9601 52.56 115.92" stroke="#FFE661" stroke-width="1.92"/>
<path d="M72.0001 38.8801C83.8801 50.4001 101.76 86.5201 72.0001 115.92" stroke="#FFE661" stroke-width="1.92"/>
<path d="M31.4401 43.6799C15.5025 54.9198 -6.81023 84.6956 31.4401 110.52" stroke="#FFE661" stroke-width="1.92"/>
<path d="M93.1199 43.6799C109.058 54.9198 131.37 84.6956 93.1199 110.52" stroke="#FFE661" stroke-width="1.92"/>
<path d="M41.0399 38.76C56.8799 35.1599 66.8399 34.92 81.7199 38.76" stroke="#FFE661" stroke-width="9.6"/>
<path d="M41.0399 116.16C56.8799 119.76 66.8399 120 81.7199 116.16" stroke="#FFE661" stroke-width="9.6"/>
<rect x="53.7601" y="-4.8" width="17.04" height="41.04" rx="1.2" stroke="#FFE661" stroke-width="2.4"/>
<rect x="53.04" y="121.44" width="17.04" height="41.04" rx="1.2" stroke="#FFE661" stroke-width="2.4"/>
<path d="M75.1584 210.84C80.9184 207 73.92 165.36 71.52 146.52C71.52 146.52 66.0043 153.459 61.2 153.24C56.7048 153.035 51.84 146.52 51.84 146.52C54.12 167.64 36.7584 216.6 43.9584 210.84C52.9585 203.64 67.9584 215.64 75.1584 210.84Z" fill="#E21F1F"/>
<path d="M51.8399 172.32C50.3999 182.4 46.7039 204.408 43.4399 211.8" stroke="#FFE661" stroke-width="2.4"/>
<path d="M55.8001 165.12C58.6801 176.28 51.9841 201.768 48.7201 209.16" stroke="#FFE661" stroke-width="2.4"/>
<path d="M70.44 170.88C71.88 180.96 72.336 204.408 75.6 211.8" stroke="#FFE661" stroke-width="2.4"/>
<path d="M64.2 177.12C65.64 187.2 64.896 204.408 68.16 211.8" stroke="#FFE661" stroke-width="2.4"/>
<ellipse rx="61.8" ry="38.28" transform="matrix(-1 0 0 1 317.8 79.9201)" fill="#E21F1F"/>
<path d="M327.04 41.8801C337.24 45.7201 357.88 90.9601 327.04 118.92" stroke="#FFE661" stroke-width="1.92"/>
<path d="M307.6 41.8801C295.72 53.4001 277.84 89.5201 307.6 118.92" stroke="#FFE661" stroke-width="1.92"/>
<path d="M348.16 46.6799C364.097 57.9198 386.41 87.6956 348.16 113.52" stroke="#FFE661" stroke-width="1.92"/>
<path d="M286.48 46.6799C270.542 57.9198 248.23 87.6956 286.48 113.52" stroke="#FFE661" stroke-width="1.92"/>
<path d="M338.56 41.76C322.72 38.1599 312.76 37.92 297.88 41.76" stroke="#FFE661" stroke-width="9.6"/>
<path d="M338.56 119.16C322.72 122.76 312.76 123 297.88 119.16" stroke="#FFE661" stroke-width="9.6"/>
<rect x="-1.2" y="1.2" width="17.04" height="41.04" rx="1.2" transform="matrix(-1 0 0 1 324.64 -3)" stroke="#FFE661" stroke-width="2.4"/>
<rect x="-1.2" y="1.2" width="17.04" height="41.04" rx="1.2" transform="matrix(-1 0 0 1 325.36 123.24)" stroke="#FFE661" stroke-width="2.4"/>
<path d="M304.442 213.84C298.682 210 305.68 168.36 308.08 149.52C308.08 149.52 313.596 156.459 318.4 156.24C322.895 156.035 327.76 149.52 327.76 149.52C325.48 170.64 342.842 219.6 335.642 213.84C326.642 206.64 311.642 218.64 304.442 213.84Z" fill="#E21F1F"/>
<path d="M327.76 175.32C329.2 185.4 332.896 207.408 336.16 214.8" stroke="#FFE661" stroke-width="2.4"/>
<path d="M323.8 168.12C320.92 179.28 327.616 204.768 330.88 212.16" stroke="#FFE661" stroke-width="2.4"/>
<path d="M309.16 173.88C307.72 183.96 307.264 207.408 304 214.8" stroke="#FFE661" stroke-width="2.4"/>
<path d="M315.4 180.12C313.96 190.2 314.704 207.408 311.44 214.8" stroke="#FFE661" stroke-width="2.4"/>
</g>
<defs>
<clipPath id="clip0">
<rect width="380" height="380" fill="white"/>
</clipPath>
</defs>
</svg>
