<svg width="380" height="380" viewBox="0 0 380 380" fill="none" xmlns="http://www.w3.org/2000/svg">
  <rect width="100%" height="100%" fill="{{color[0]}}" />
<g clip-path="url(#clip0)">
<rect width="39.3271" height="42.0773" fill="#494949" fill-opacity="0.3"/>
<rect x="39.3281" width="39.3271" height="42.0773" fill="#8A8A8A" fill-opacity="0.3"/>
<rect x="78.6543" width="39.3271" height="42.0773" fill="#494949" fill-opacity="0.3"/>
<rect x="117.982" width="39.3271" height="42.0773" fill="#494949" fill-opacity="0.3"/>
<rect x="157.309" width="39.3271" height="42.0773" fill="#8A8A8A" fill-opacity="0.3"/>
<rect x="196.637" width="39.3271" height="42.0773" fill="#C4C4C4" fill-opacity="0.3"/>
<rect x="235.964" width="39.3271" height="42.0773" fill="#C4C4C4" fill-opacity="0.3"/>
<rect x="275.291" width="39.3271" height="42.0773" fill="#C4C4C4" fill-opacity="0.3"/>
<rect x="314.618" width="39.3271" height="42.0773" fill="#494949" fill-opacity="0.3"/>
<rect x="353.944" width="39.3271" height="42.0773" fill="#C4C4C4" fill-opacity="0.3"/>
<rect y="42.0773" width="39.3271" height="42.0773" fill="#C4C4C4" fill-opacity="0.3"/>
<rect x="39.3281" y="42.0773" width="39.3271" height="42.0773" fill="#8A8A8A" fill-opacity="0.3"/>
<rect x="78.6543" y="42.0773" width="39.3271" height="42.0773" fill="#8A8A8A" fill-opacity="0.3"/>
<rect x="117.982" y="42.0773" width="39.3271" height="42.0773" fill="#8A8A8A" fill-opacity="0.3"/>
<rect x="157.309" y="42.0773" width="39.3271" height="42.0773" fill="#C4C4C4" fill-opacity="0.3"/>
<rect x="196.637" y="42.0773" width="39.3271" height="42.0773" fill="#8A8A8A" fill-opacity="0.3"/>
<rect x="235.964" y="42.0773" width="39.3271" height="42.0773" fill="#8A8A8A" fill-opacity="0.3"/>
<rect x="275.291" y="42.0773" width="39.3271" height="42.0773" fill="#C4C4C4" fill-opacity="0.3"/>
<rect x="314.618" y="42.0773" width="39.3271" height="42.0773" fill="#8A8A8A" fill-opacity="0.3"/>
<rect x="353.944" y="42.0773" width="39.3271" height="42.0773" fill="#8A8A8A" fill-opacity="0.3"/>
<rect y="84.1545" width="39.3271" height="42.0773" fill="#C4C4C4" fill-opacity="0.3"/>
<rect x="39.3281" y="84.1545" width="39.3271" height="42.0773" fill="#494949" fill-opacity="0.3"/>
<rect x="78.6543" y="84.1545" width="39.3271" height="42.0773" fill="#8A8A8A" fill-opacity="0.3"/>
<rect x="117.982" y="84.1545" width="39.3271" height="42.0773" fill="#C4C4C4" fill-opacity="0.3"/>
<rect x="157.309" y="84.1545" width="39.3271" height="42.0773" fill="#494949" fill-opacity="0.3"/>
<rect x="196.637" y="84.1545" width="39.3271" height="42.0773" fill="#8A8A8A" fill-opacity="0.3"/>
<rect x="235.964" y="84.1545" width="39.3271" height="42.0773" fill="#494949" fill-opacity="0.3"/>
<rect x="275.291" y="84.1545" width="39.3271" height="42.0773" fill="#8A8A8A" fill-opacity="0.3"/>
<rect x="314.618" y="84.1545" width="39.3271" height="42.0773" fill="#C4C4C4" fill-opacity="0.3"/>
<rect x="353.944" y="84.1545" width="39.3271" height="42.0773" fill="#494949" fill-opacity="0.3"/>
<rect y="126.232" width="39.3271" height="42.0773" fill="#C4C4C4" fill-opacity="0.3"/>
<rect x="39.3281" y="126.232" width="39.3271" height="42.0773" fill="#8A8A8A" fill-opacity="0.3"/>
<rect x="78.6543" y="126.232" width="39.3271" height="42.0773" fill="#8A8A8A" fill-opacity="0.3"/>
<rect x="117.982" y="126.232" width="39.3271" height="42.0773" fill="#494949" fill-opacity="0.3"/>
<rect x="157.309" y="126.232" width="39.3271" height="42.0773" fill="#8A8A8A" fill-opacity="0.3"/>
<rect x="196.637" y="126.232" width="39.3271" height="42.0773" fill="#C4C4C4" fill-opacity="0.3"/>
<rect x="235.964" y="126.232" width="39.3271" height="42.0773" fill="#8A8A8A" fill-opacity="0.3"/>
<rect x="275.291" y="126.232" width="39.3271" height="42.0773" fill="#8A8A8A" fill-opacity="0.3"/>
<rect x="314.618" y="126.232" width="39.3271" height="42.0773" fill="#C4C4C4" fill-opacity="0.3"/>
<rect x="353.944" y="126.232" width="39.3271" height="42.0773" fill="#C4C4C4" fill-opacity="0.3"/>
<rect y="168.309" width="39.3271" height="42.0773" fill="#494949" fill-opacity="0.3"/>
<rect x="39.3281" y="168.309" width="39.3271" height="42.0773" fill="#494949" fill-opacity="0.3"/>
<rect x="78.6543" y="168.309" width="39.3271" height="42.0773" fill="#C4C4C4" fill-opacity="0.3"/>
<rect x="117.982" y="168.309" width="39.3271" height="42.0773" fill="#494949" fill-opacity="0.3"/>
<rect x="157.309" y="168.309" width="39.3271" height="42.0773" fill="#C4C4C4" fill-opacity="0.3"/>
<rect x="196.637" y="168.309" width="39.3271" height="42.0773" fill="#C4C4C4" fill-opacity="0.3"/>
<rect x="235.964" y="168.309" width="39.3271" height="42.0773" fill="#8A8A8A" fill-opacity="0.3"/>
<rect x="275.291" y="168.309" width="39.3271" height="42.0773" fill="#494949" fill-opacity="0.3"/>
<rect x="314.618" y="168.309" width="39.3271" height="42.0773" fill="#8A8A8A" fill-opacity="0.3"/>
<rect x="353.944" y="168.309" width="39.3271" height="42.0773" fill="#8A8A8A" fill-opacity="0.3"/>
<rect y="210.386" width="39.3271" height="42.0773" fill="#8A8A8A" fill-opacity="0.3"/>
<rect x="39.3281" y="210.386" width="39.3271" height="42.0773" fill="#494949" fill-opacity="0.3"/>
<rect x="78.6543" y="210.386" width="39.3271" height="42.0773" fill="#494949" fill-opacity="0.3"/>
<rect x="117.982" y="210.386" width="39.3271" height="42.0773" fill="#C4C4C4" fill-opacity="0.3"/>
<rect x="157.309" y="210.386" width="39.3271" height="42.0773" fill="#C4C4C4" fill-opacity="0.3"/>
<rect x="196.637" y="210.386" width="39.3271" height="42.0773" fill="#C4C4C4" fill-opacity="0.3"/>
<rect x="235.964" y="210.386" width="39.3271" height="42.0773" fill="#8A8A8A" fill-opacity="0.3"/>
<rect x="275.291" y="210.386" width="39.3271" height="42.0773" fill="#8A8A8A" fill-opacity="0.3"/>
<rect x="314.618" y="210.386" width="39.3271" height="42.0773" fill="#494949" fill-opacity="0.3"/>
<rect x="353.944" y="210.386" width="39.3271" height="42.0773" fill="#8A8A8A" fill-opacity="0.3"/>
<rect y="252.464" width="39.3271" height="42.0773" fill="#494949" fill-opacity="0.3"/>
<rect x="39.3281" y="252.464" width="39.3271" height="42.0773" fill="#C4C4C4" fill-opacity="0.3"/>
<rect x="78.6543" y="252.464" width="39.3271" height="42.0773" fill="#8A8A8A" fill-opacity="0.3"/>
<rect x="117.982" y="252.464" width="39.3271" height="42.0773" fill="#C4C4C4" fill-opacity="0.3"/>
<rect x="157.309" y="252.464" width="39.3271" height="42.0773" fill="#C4C4C4" fill-opacity="0.3"/>
<rect x="196.637" y="252.464" width="39.3271" height="42.0773" fill="#494949" fill-opacity="0.3"/>
<rect x="235.964" y="252.464" width="39.3271" height="42.0773" fill="#494949" fill-opacity="0.3"/>
<rect x="275.291" y="252.464" width="39.3271" height="42.0773" fill="#8A8A8A" fill-opacity="0.3"/>
<rect x="314.618" y="252.464" width="39.3271" height="42.0773" fill="#C4C4C4" fill-opacity="0.3"/>
<rect x="353.944" y="252.464" width="39.3271" height="42.0773" fill="#C4C4C4" fill-opacity="0.3"/>
<rect y="294.541" width="39.3271" height="42.0773" fill="#494949" fill-opacity="0.3"/>
<rect x="39.3281" y="294.541" width="39.3271" height="42.0773" fill="#8A8A8A" fill-opacity="0.3"/>
<rect x="78.6543" y="294.541" width="39.3271" height="42.0773" fill="#494949" fill-opacity="0.3"/>
<rect x="117.982" y="294.541" width="39.3271" height="42.0773" fill="#8A8A8A" fill-opacity="0.3"/>
<rect x="157.309" y="294.541" width="39.3271" height="42.0773" fill="#494949" fill-opacity="0.3"/>
<rect x="196.637" y="294.541" width="39.3271" height="42.0773" fill="#C4C4C4" fill-opacity="0.3"/>
<rect x="235.964" y="294.541" width="39.3271" height="42.0773" fill="#494949" fill-opacity="0.3"/>
<rect x="275.291" y="294.541" width="39.3271" height="42.0773" fill="#494949" fill-opacity="0.3"/>
<rect x="314.618" y="294.541" width="39.3271" height="42.0773" fill="#494949" fill-opacity="0.3"/>
<rect x="353.944" y="294.541" width="39.3271" height="42.0773" fill="#494949" fill-opacity="0.3"/>
<rect y="336.618" width="39.3271" height="42.0773" fill="#494949" fill-opacity="0.3"/>
<rect x="39.3281" y="336.618" width="39.3271" height="42.0773" fill="#494949" fill-opacity="0.3"/>
<rect x="78.6543" y="336.618" width="39.3271" height="42.0773" fill="#494949" fill-opacity="0.3"/>
<rect x="117.982" y="336.618" width="39.3271" height="42.0773" fill="#C4C4C4" fill-opacity="0.3"/>
<rect x="157.309" y="336.618" width="39.3271" height="42.0773" fill="#8A8A8A" fill-opacity="0.3"/>
<rect x="196.637" y="336.618" width="39.3271" height="42.0773" fill="#8A8A8A" fill-opacity="0.3"/>
<rect x="235.964" y="336.618" width="39.3271" height="42.0773" fill="#494949" fill-opacity="0.3"/>
<rect x="275.291" y="336.618" width="39.3271" height="42.0773" fill="#494949" fill-opacity="0.3"/>
<rect x="314.618" y="336.618" width="39.3271" height="42.0773" fill="#C4C4C4" fill-opacity="0.3"/>
<rect x="353.944" y="336.618" width="39.3271" height="42.0773" fill="#8A8A8A" fill-opacity="0.3"/>
<rect y="378.695" width="39.3271" height="42.0773" fill="#C4C4C4" fill-opacity="0.3"/>
<rect x="39.3281" y="378.695" width="39.3271" height="42.0773" fill="#494949" fill-opacity="0.3"/>
<rect x="78.6543" y="378.695" width="39.3271" height="42.0773" fill="#C4C4C4" fill-opacity="0.3"/>
<rect x="117.982" y="378.695" width="39.3271" height="42.0773" fill="#494949" fill-opacity="0.3"/>
<rect x="157.309" y="378.695" width="39.3271" height="42.0773" fill="#C4C4C4" fill-opacity="0.3"/>
<rect x="196.637" y="378.695" width="39.3271" height="42.0773" fill="#8A8A8A" fill-opacity="0.3"/>
<rect x="235.964" y="378.695" width="39.3271" height="42.0773" fill="#C4C4C4" fill-opacity="0.3"/>
<rect x="275.291" y="378.695" width="39.3271" height="42.0773" fill="#8A8A8A" fill-opacity="0.3"/>
<rect x="314.618" y="378.695" width="39.3271" height="42.0773" fill="#C4C4C4" fill-opacity="0.3"/>
<rect x="353.944" y="378.695" width="39.3271" height="42.0773" fill="#C4C4C4" fill-opacity="0.3"/>
</g>
<defs>
<clipPath id="clip0">
<rect width="380" height="380" fill="white"/>
</clipPath>
</defs>
</svg>
