<svg width="381" height="380" viewBox="0 0 381 380" fill="none" xmlns="http://www.w3.org/2000/svg">
  <rect width="100%" height="100%" fill="{{color[0]}}" />
<g clip-path="url(#clip0)">
<circle cx="11.6636" cy="32.6243" r="10.8823" fill="white" fill-opacity="0.3"/>
<circle cx="218.347" cy="237.346" r="11.1466" fill="white" fill-opacity="0.3"/>
<circle cx="11.6636" cy="62.1653" r="10.8823" fill="white" fill-opacity="0.3"/>
<circle cx="218.347" cy="267.604" r="11.1466" fill="white" fill-opacity="0.3"/>
<circle cx="11.6636" cy="91.7043" r="10.8823" fill="white" fill-opacity="0.3"/>
<circle cx="218.347" cy="297.86" r="11.1466" fill="white" fill-opacity="0.3"/>
<circle cx="100.284" cy="32.6243" r="10.8823" fill="white" fill-opacity="0.3"/>
<circle cx="309.119" cy="237.346" r="11.1466" fill="white" fill-opacity="0.3"/>
<circle cx="100.284" cy="62.1653" r="10.8823" fill="white" fill-opacity="0.3"/>
<circle cx="309.119" cy="267.604" r="11.1466" fill="white" fill-opacity="0.3"/>
<circle cx="100.284" cy="91.7043" r="10.8823" fill="white" fill-opacity="0.3"/>
<circle cx="309.119" cy="297.86" r="11.1466" fill="white" fill-opacity="0.3"/>
<circle cx="41.2036" cy="32.6243" r="10.8823" fill="white" fill-opacity="0.3"/>
<circle cx="248.605" cy="237.346" r="11.1466" fill="white" fill-opacity="0.3"/>
<circle cx="41.2036" cy="62.1653" r="10.8823" fill="white" fill-opacity="0.3"/>
<circle cx="248.605" cy="267.604" r="11.1466" fill="white" fill-opacity="0.3"/>
<circle cx="41.2036" cy="91.7043" r="10.8823" fill="white" fill-opacity="0.3"/>
<circle cx="248.605" cy="297.86" r="11.1466" fill="white" fill-opacity="0.3"/>
<circle cx="129.824" cy="32.6243" r="10.8823" fill="white" fill-opacity="0.3"/>
<circle cx="339.377" cy="237.346" r="11.1466" fill="white" fill-opacity="0.3"/>
<circle cx="129.824" cy="62.1653" r="10.8823" fill="white" fill-opacity="0.3"/>
<circle cx="339.377" cy="267.604" r="11.1466" fill="white" fill-opacity="0.3"/>
<circle cx="129.824" cy="91.7043" r="10.8823" fill="white" fill-opacity="0.3"/>
<circle cx="339.377" cy="297.86" r="11.1466" fill="white" fill-opacity="0.3"/>
<circle cx="70.7436" cy="32.6243" r="10.8823" fill="white" fill-opacity="0.3"/>
<circle cx="278.862" cy="237.346" r="11.1466" fill="white" fill-opacity="0.3"/>
<circle cx="70.7436" cy="62.1653" r="10.8823" fill="white" fill-opacity="0.3"/>
<circle cx="278.862" cy="267.604" r="11.1466" fill="white" fill-opacity="0.3"/>
<circle cx="70.7436" cy="91.7043" r="10.8823" fill="white" fill-opacity="0.3"/>
<circle cx="278.862" cy="297.86" r="11.1466" fill="white" fill-opacity="0.3"/>
<circle cx="159.365" cy="32.6243" r="10.8823" fill="white" fill-opacity="0.3"/>
<circle cx="369.635" cy="237.346" r="11.1466" fill="white" fill-opacity="0.3"/>
<circle cx="159.365" cy="62.1653" r="10.8823" fill="white" fill-opacity="0.3"/>
<circle cx="369.635" cy="267.604" r="11.1466" fill="white" fill-opacity="0.3"/>
<circle cx="159.365" cy="91.7043" r="10.8823" fill="white" fill-opacity="0.3"/>
<circle cx="369.635" cy="297.86" r="11.1466" fill="white" fill-opacity="0.3"/>
</g>
<defs>
<clipPath id="clip0">
<rect width="380" height="380" fill="white" transform="translate(0.78125)"/>
</clipPath>
</defs>
</svg>
