<svg width="381" height="380" viewBox="0 0 381 380" fill="none" xmlns="http://www.w3.org/2000/svg">
  <rect width="100%" height="100%" fill="{{color[0]}}" />
<g clip-path="url(#clip0)">
<path d="M-18.6045 24.7057C-18.6045 24.7057 -3.76355 15.0149 5.04314 24.7057C13.8498 34.3964 28.6908 24.7057 28.6908 24.7057" stroke="white" stroke-opacity="0.3" stroke-width="3"/>
<path d="M-18.6045 34.3189C-18.6045 34.3189 -3.76355 24.6282 5.04314 34.3189C13.8498 44.0097 28.6908 34.3189 28.6908 34.3189" stroke="white" stroke-opacity="0.3" stroke-width="3"/>
<path d="M-18.6045 43.9322C-18.6045 43.9322 -3.76355 34.2415 5.04314 43.9322C13.8498 53.6229 28.6908 43.9322 28.6908 43.9322" stroke="white" stroke-opacity="0.3" stroke-width="3"/>
<path d="M-18.6045 102.546C-18.6045 102.546 -3.76355 92.8554 5.04314 102.546C13.8498 112.237 28.6908 102.546 28.6908 102.546" stroke="white" stroke-opacity="0.3" stroke-width="3"/>
<path d="M-18.6045 112.159C-18.6045 112.159 -3.76355 102.469 5.04314 112.159C13.8498 121.85 28.6908 112.159 28.6908 112.159" stroke="white" stroke-opacity="0.3" stroke-width="3"/>
<path d="M-18.6045 121.773C-18.6045 121.773 -3.76355 112.082 5.04314 121.773C13.8498 131.463 28.6908 121.773 28.6908 121.773" stroke="white" stroke-opacity="0.3" stroke-width="3"/>
<path d="M-18.6045 180.387C-18.6045 180.387 -3.76355 170.696 5.04314 180.387C13.8498 190.077 28.6908 180.387 28.6908 180.387" stroke="white" stroke-opacity="0.3" stroke-width="3"/>
<path d="M-18.6045 190C-18.6045 190 -3.76355 180.309 5.04314 190C13.8498 199.691 28.6908 190 28.6908 190" stroke="white" stroke-opacity="0.3" stroke-width="3"/>
<path d="M-18.6045 199.613C-18.6045 199.613 -3.76355 189.923 5.04314 199.613C13.8498 209.304 28.6908 199.613 28.6908 199.613" stroke="white" stroke-opacity="0.3" stroke-width="3"/>
<path d="M-18.6045 258.227C-18.6045 258.227 -3.76355 248.536 5.04314 258.227C13.8498 267.918 28.6908 258.227 28.6908 258.227" stroke="white" stroke-opacity="0.3" stroke-width="3"/>
<path d="M-18.6045 267.84C-18.6045 267.84 -3.76355 258.15 5.04314 267.84C13.8498 277.531 28.6908 267.84 28.6908 267.84" stroke="white" stroke-opacity="0.3" stroke-width="3"/>
<path d="M-18.6045 277.454C-18.6045 277.454 -3.76355 267.763 5.04314 277.454C13.8498 287.144 28.6908 277.454 28.6908 277.454" stroke="white" stroke-opacity="0.3" stroke-width="3"/>
<path d="M-18.6045 336.068C-18.6045 336.068 -3.76355 326.377 5.04314 336.068C13.8498 345.758 28.6908 336.068 28.6908 336.068" stroke="white" stroke-opacity="0.3" stroke-width="3"/>
<path d="M-18.6045 345.681C-18.6045 345.681 -3.76355 335.99 5.04314 345.681C13.8498 355.372 28.6908 345.681 28.6908 345.681" stroke="white" stroke-opacity="0.3" stroke-width="3"/>
<path d="M-18.6045 355.294C-18.6045 355.294 -3.76355 345.604 5.04314 355.294C13.8498 364.985 28.6908 355.294 28.6908 355.294" stroke="white" stroke-opacity="0.3" stroke-width="3"/>
<path d="M55.6904 -4.60134C55.6904 -4.60134 70.5314 -14.2921 79.3381 -4.60134C88.1448 5.08938 102.986 -4.60134 102.986 -4.60134" stroke="white" stroke-opacity="0.3" stroke-width="3"/>
<path d="M55.6904 5.01194C55.6904 5.01194 70.5314 -4.67878 79.3381 5.01194C88.1448 14.7027 102.986 5.01194 102.986 5.01194" stroke="white" stroke-opacity="0.3" stroke-width="3"/>
<path d="M55.6904 63.626C55.6904 63.626 70.5314 53.9352 79.3381 63.626C88.1448 73.3167 102.986 63.626 102.986 63.626" stroke="white" stroke-opacity="0.3" stroke-width="3"/>
<path d="M55.6904 73.2392C55.6904 73.2392 70.5314 63.5485 79.3381 73.2392C88.1448 82.93 102.986 73.2392 102.986 73.2392" stroke="white" stroke-opacity="0.3" stroke-width="3"/>
<path d="M55.6904 82.8525C55.6904 82.8525 70.5314 73.1618 79.3381 82.8525C88.1448 92.5432 102.986 82.8525 102.986 82.8525" stroke="white" stroke-opacity="0.3" stroke-width="3"/>
<path d="M55.6904 141.466C55.6904 141.466 70.5314 131.776 79.3381 141.466C88.1448 151.157 102.986 141.466 102.986 141.466" stroke="white" stroke-opacity="0.3" stroke-width="3"/>
<path d="M55.6904 151.08C55.6904 151.08 70.5314 141.389 79.3381 151.08C88.1448 160.77 102.986 151.08 102.986 151.08" stroke="white" stroke-opacity="0.3" stroke-width="3"/>
<path d="M55.6904 160.693C55.6904 160.693 70.5314 151.002 79.3381 160.693C88.1448 170.384 102.986 160.693 102.986 160.693" stroke="white" stroke-opacity="0.3" stroke-width="3"/>
<path d="M55.6904 219.307C55.6904 219.307 70.5314 209.616 79.3381 219.307C88.1448 228.998 102.986 219.307 102.986 219.307" stroke="white" stroke-opacity="0.3" stroke-width="3"/>
<path d="M55.6904 228.92C55.6904 228.92 70.5314 219.23 79.3381 228.92C88.1448 238.611 102.986 228.92 102.986 228.92" stroke="white" stroke-opacity="0.3" stroke-width="3"/>
<path d="M55.6904 238.534C55.6904 238.534 70.5314 228.843 79.3381 238.534C88.1448 248.224 102.986 238.534 102.986 238.534" stroke="white" stroke-opacity="0.3" stroke-width="3"/>
<path d="M55.6904 297.148C55.6904 297.148 70.5314 287.457 79.3381 297.148C88.1448 306.838 102.986 297.148 102.986 297.148" stroke="white" stroke-opacity="0.3" stroke-width="3"/>
<path d="M55.6904 306.761C55.6904 306.761 70.5314 297.07 79.3381 306.761C88.1448 316.452 102.986 306.761 102.986 306.761" stroke="white" stroke-opacity="0.3" stroke-width="3"/>
<path d="M55.6904 316.374C55.6904 316.374 70.5314 306.683 79.3381 316.374C88.1448 326.065 102.986 316.374 102.986 316.374" stroke="white" stroke-opacity="0.3" stroke-width="3"/>
<path d="M55.6904 374.988C55.6904 374.988 70.5314 365.297 79.3381 374.988C88.1448 384.679 102.986 374.988 102.986 374.988" stroke="white" stroke-opacity="0.3" stroke-width="3"/>
<path d="M55.6904 384.601C55.6904 384.601 70.5314 374.911 79.3381 384.601C88.1448 394.292 102.986 384.601 102.986 384.601" stroke="white" stroke-opacity="0.3" stroke-width="3"/>
<path d="M129.986 24.7057C129.986 24.7057 144.827 15.0149 153.634 24.7057C162.441 34.3964 177.282 24.7057 177.282 24.7057" stroke="white" stroke-opacity="0.3" stroke-width="3"/>
<path d="M129.986 34.3189C129.986 34.3189 144.827 24.6282 153.634 34.3189C162.441 44.0097 177.282 34.3189 177.282 34.3189" stroke="white" stroke-opacity="0.3" stroke-width="3"/>
<path d="M129.986 43.9322C129.986 43.9322 144.827 34.2415 153.634 43.9322C162.441 53.6229 177.282 43.9322 177.282 43.9322" stroke="white" stroke-opacity="0.3" stroke-width="3"/>
<path d="M129.986 102.546C129.986 102.546 144.827 92.8554 153.634 102.546C162.441 112.237 177.282 102.546 177.282 102.546" stroke="white" stroke-opacity="0.3" stroke-width="3"/>
<path d="M129.986 112.159C129.986 112.159 144.827 102.469 153.634 112.159C162.441 121.85 177.282 112.159 177.282 112.159" stroke="white" stroke-opacity="0.3" stroke-width="3"/>
<path d="M129.986 121.773C129.986 121.773 144.827 112.082 153.634 121.773C162.441 131.463 177.282 121.773 177.282 121.773" stroke="white" stroke-opacity="0.3" stroke-width="3"/>
<path d="M129.986 180.387C129.986 180.387 144.827 170.696 153.634 180.387C162.441 190.077 177.282 180.387 177.282 180.387" stroke="white" stroke-opacity="0.3" stroke-width="3"/>
<path d="M129.986 190C129.986 190 144.827 180.309 153.634 190C162.441 199.691 177.282 190 177.282 190" stroke="white" stroke-opacity="0.3" stroke-width="3"/>
<path d="M129.986 199.613C129.986 199.613 144.827 189.923 153.634 199.613C162.441 209.304 177.282 199.613 177.282 199.613" stroke="white" stroke-opacity="0.3" stroke-width="3"/>
<path d="M129.986 258.227C129.986 258.227 144.827 248.536 153.634 258.227C162.441 267.918 177.282 258.227 177.282 258.227" stroke="white" stroke-opacity="0.3" stroke-width="3"/>
<path d="M129.986 267.84C129.986 267.84 144.827 258.15 153.634 267.84C162.441 277.531 177.282 267.84 177.282 267.84" stroke="white" stroke-opacity="0.3" stroke-width="3"/>
<path d="M129.986 277.454C129.986 277.454 144.827 267.763 153.634 277.454C162.441 287.144 177.282 277.454 177.282 277.454" stroke="white" stroke-opacity="0.3" stroke-width="3"/>
<path d="M129.986 336.068C129.986 336.068 144.827 326.377 153.634 336.068C162.441 345.758 177.282 336.068 177.282 336.068" stroke="white" stroke-opacity="0.3" stroke-width="3"/>
<path d="M129.986 345.681C129.986 345.681 144.827 335.99 153.634 345.681C162.441 355.372 177.282 345.681 177.282 345.681" stroke="white" stroke-opacity="0.3" stroke-width="3"/>
<path d="M129.986 355.294C129.986 355.294 144.827 345.604 153.634 355.294C162.441 364.985 177.282 355.294 177.282 355.294" stroke="white" stroke-opacity="0.3" stroke-width="3"/>
<path d="M204.281 -4.60134C204.281 -4.60134 219.122 -14.2921 227.929 -4.60134C236.736 5.08938 251.577 -4.60134 251.577 -4.60134" stroke="white" stroke-opacity="0.3" stroke-width="3"/>
<path d="M204.281 5.01194C204.281 5.01194 219.122 -4.67878 227.929 5.01194C236.736 14.7027 251.577 5.01194 251.577 5.01194" stroke="white" stroke-opacity="0.3" stroke-width="3"/>
<path d="M204.281 63.626C204.281 63.626 219.122 53.9352 227.929 63.626C236.736 73.3167 251.577 63.626 251.577 63.626" stroke="white" stroke-opacity="0.3" stroke-width="3"/>
<path d="M204.281 73.2392C204.281 73.2392 219.122 63.5485 227.929 73.2392C236.736 82.93 251.577 73.2392 251.577 73.2392" stroke="white" stroke-opacity="0.3" stroke-width="3"/>
<path d="M204.281 82.8525C204.281 82.8525 219.122 73.1618 227.929 82.8525C236.736 92.5432 251.577 82.8525 251.577 82.8525" stroke="white" stroke-opacity="0.3" stroke-width="3"/>
<path d="M204.281 141.466C204.281 141.466 219.122 131.776 227.929 141.466C236.736 151.157 251.577 141.466 251.577 141.466" stroke="white" stroke-opacity="0.3" stroke-width="3"/>
<path d="M204.281 151.08C204.281 151.08 219.122 141.389 227.929 151.08C236.736 160.77 251.577 151.08 251.577 151.08" stroke="white" stroke-opacity="0.3" stroke-width="3"/>
<path d="M204.281 160.693C204.281 160.693 219.122 151.002 227.929 160.693C236.736 170.384 251.577 160.693 251.577 160.693" stroke="white" stroke-opacity="0.3" stroke-width="3"/>
<path d="M204.281 219.307C204.281 219.307 219.122 209.616 227.929 219.307C236.736 228.998 251.577 219.307 251.577 219.307" stroke="white" stroke-opacity="0.3" stroke-width="3"/>
<path d="M204.281 228.92C204.281 228.92 219.122 219.23 227.929 228.92C236.736 238.611 251.577 228.92 251.577 228.92" stroke="white" stroke-opacity="0.3" stroke-width="3"/>
<path d="M204.281 238.534C204.281 238.534 219.122 228.843 227.929 238.534C236.736 248.224 251.577 238.534 251.577 238.534" stroke="white" stroke-opacity="0.3" stroke-width="3"/>
<path d="M204.281 297.148C204.281 297.148 219.122 287.457 227.929 297.148C236.736 306.838 251.577 297.148 251.577 297.148" stroke="white" stroke-opacity="0.3" stroke-width="3"/>
<path d="M204.281 306.761C204.281 306.761 219.122 297.07 227.929 306.761C236.736 316.452 251.577 306.761 251.577 306.761" stroke="white" stroke-opacity="0.3" stroke-width="3"/>
<path d="M204.281 316.374C204.281 316.374 219.122 306.683 227.929 316.374C236.736 326.065 251.577 316.374 251.577 316.374" stroke="white" stroke-opacity="0.3" stroke-width="3"/>
<path d="M204.281 374.988C204.281 374.988 219.122 365.297 227.929 374.988C236.736 384.679 251.577 374.988 251.577 374.988" stroke="white" stroke-opacity="0.3" stroke-width="3"/>
<path d="M204.281 384.601C204.281 384.601 219.122 374.911 227.929 384.601C236.736 394.292 251.577 384.601 251.577 384.601" stroke="white" stroke-opacity="0.3" stroke-width="3"/>
<path d="M278.576 24.7057C278.576 24.7057 293.417 15.0149 302.224 24.7057C311.03 34.3964 325.871 24.7057 325.871 24.7057" stroke="white" stroke-opacity="0.3" stroke-width="3"/>
<path d="M278.576 34.3189C278.576 34.3189 293.417 24.6282 302.224 34.3189C311.03 44.0097 325.871 34.3189 325.871 34.3189" stroke="white" stroke-opacity="0.3" stroke-width="3"/>
<path d="M278.576 43.9322C278.576 43.9322 293.417 34.2415 302.224 43.9322C311.03 53.6229 325.871 43.9322 325.871 43.9322" stroke="white" stroke-opacity="0.3" stroke-width="3"/>
<path d="M278.576 102.546C278.576 102.546 293.417 92.8554 302.224 102.546C311.03 112.237 325.871 102.546 325.871 102.546" stroke="white" stroke-opacity="0.3" stroke-width="3"/>
<path d="M278.576 112.159C278.576 112.159 293.417 102.469 302.224 112.159C311.03 121.85 325.871 112.159 325.871 112.159" stroke="white" stroke-opacity="0.3" stroke-width="3"/>
<path d="M278.576 121.773C278.576 121.773 293.417 112.082 302.224 121.773C311.03 131.463 325.871 121.773 325.871 121.773" stroke="white" stroke-opacity="0.3" stroke-width="3"/>
<path d="M278.576 180.387C278.576 180.387 293.417 170.696 302.224 180.387C311.03 190.077 325.871 180.387 325.871 180.387" stroke="white" stroke-opacity="0.3" stroke-width="3"/>
<path d="M278.576 190C278.576 190 293.417 180.309 302.224 190C311.03 199.691 325.871 190 325.871 190" stroke="white" stroke-opacity="0.3" stroke-width="3"/>
<path d="M278.576 199.613C278.576 199.613 293.417 189.923 302.224 199.613C311.03 209.304 325.871 199.613 325.871 199.613" stroke="white" stroke-opacity="0.3" stroke-width="3"/>
<path d="M278.576 258.227C278.576 258.227 293.417 248.536 302.224 258.227C311.03 267.918 325.871 258.227 325.871 258.227" stroke="white" stroke-opacity="0.3" stroke-width="3"/>
<path d="M278.576 267.84C278.576 267.84 293.417 258.15 302.224 267.84C311.03 277.531 325.871 267.84 325.871 267.84" stroke="white" stroke-opacity="0.3" stroke-width="3"/>
<path d="M278.576 277.454C278.576 277.454 293.417 267.763 302.224 277.454C311.03 287.144 325.871 277.454 325.871 277.454" stroke="white" stroke-opacity="0.3" stroke-width="3"/>
<path d="M278.576 336.068C278.576 336.068 293.417 326.377 302.224 336.068C311.03 345.758 325.871 336.068 325.871 336.068" stroke="white" stroke-opacity="0.3" stroke-width="3"/>
<path d="M278.576 345.681C278.576 345.681 293.417 335.99 302.224 345.681C311.03 355.372 325.871 345.681 325.871 345.681" stroke="white" stroke-opacity="0.3" stroke-width="3"/>
<path d="M278.576 355.294C278.576 355.294 293.417 345.604 302.224 355.294C311.03 364.985 325.871 355.294 325.871 355.294" stroke="white" stroke-opacity="0.3" stroke-width="3"/>
<path d="M352.872 -4.60134C352.872 -4.60134 367.713 -14.2921 376.52 -4.60134C385.326 5.08938 400.167 -4.60134 400.167 -4.60134" stroke="white" stroke-opacity="0.3" stroke-width="3"/>
<path d="M352.872 5.01194C352.872 5.01194 367.713 -4.67878 376.52 5.01194C385.326 14.7027 400.167 5.01194 400.167 5.01194" stroke="white" stroke-opacity="0.3" stroke-width="3"/>
<path d="M352.872 63.626C352.872 63.626 367.713 53.9352 376.52 63.626C385.326 73.3167 400.167 63.626 400.167 63.626" stroke="white" stroke-opacity="0.3" stroke-width="3"/>
<path d="M352.872 73.2392C352.872 73.2392 367.713 63.5485 376.52 73.2392C385.326 82.93 400.167 73.2392 400.167 73.2392" stroke="white" stroke-opacity="0.3" stroke-width="3"/>
<path d="M352.872 82.8525C352.872 82.8525 367.713 73.1618 376.52 82.8525C385.326 92.5432 400.167 82.8525 400.167 82.8525" stroke="white" stroke-opacity="0.3" stroke-width="3"/>
<path d="M352.872 141.466C352.872 141.466 367.713 131.776 376.52 141.466C385.326 151.157 400.167 141.466 400.167 141.466" stroke="white" stroke-opacity="0.3" stroke-width="3"/>
<path d="M352.872 151.08C352.872 151.08 367.713 141.389 376.52 151.08C385.326 160.77 400.167 151.08 400.167 151.08" stroke="white" stroke-opacity="0.3" stroke-width="3"/>
<path d="M352.872 160.693C352.872 160.693 367.713 151.002 376.52 160.693C385.326 170.384 400.167 160.693 400.167 160.693" stroke="white" stroke-opacity="0.3" stroke-width="3"/>
<path d="M352.872 219.307C352.872 219.307 367.713 209.616 376.52 219.307C385.326 228.998 400.167 219.307 400.167 219.307" stroke="white" stroke-opacity="0.3" stroke-width="3"/>
<path d="M352.872 228.92C352.872 228.92 367.713 219.23 376.52 228.92C385.326 238.611 400.167 228.92 400.167 228.92" stroke="white" stroke-opacity="0.3" stroke-width="3"/>
<path d="M352.872 238.534C352.872 238.534 367.713 228.843 376.52 238.534C385.326 248.224 400.167 238.534 400.167 238.534" stroke="white" stroke-opacity="0.3" stroke-width="3"/>
<path d="M352.872 297.148C352.872 297.148 367.713 287.457 376.52 297.148C385.326 306.838 400.167 297.148 400.167 297.148" stroke="white" stroke-opacity="0.3" stroke-width="3"/>
<path d="M352.872 306.761C352.872 306.761 367.713 297.07 376.52 306.761C385.326 316.452 400.167 306.761 400.167 306.761" stroke="white" stroke-opacity="0.3" stroke-width="3"/>
<path d="M352.872 316.374C352.872 316.374 367.713 306.683 376.52 316.374C385.326 326.065 400.167 316.374 400.167 316.374" stroke="white" stroke-opacity="0.3" stroke-width="3"/>
<path d="M352.872 374.988C352.872 374.988 367.713 365.297 376.52 374.988C385.326 384.679 400.167 374.988 400.167 374.988" stroke="white" stroke-opacity="0.3" stroke-width="3"/>
<path d="M352.872 384.601C352.872 384.601 367.713 374.911 376.52 384.601C385.326 394.292 400.167 384.601 400.167 384.601" stroke="white" stroke-opacity="0.3" stroke-width="3"/>
</g>
<defs>
<clipPath id="clip0">
<rect width="380" height="380" fill="white" transform="translate(0.78125)"/>
</clipPath>
</defs>
</svg>
