<svg width="381" height="380" viewBox="0 0 381 380" fill="none" xmlns="http://www.w3.org/2000/svg">
  <rect width="100%" height="100%" fill="{{color[0]}}" />
<g clip-path="url(#clip0)">
<circle cx="27.0757" cy="26.295" r="10.8823" fill="white" fill-opacity="0.3"/>
<circle cx="56.8403" cy="26.295" r="10.8823" fill="white" fill-opacity="0.3"/>
<circle cx="86.605" cy="26.295" r="10.8823" fill="white" fill-opacity="0.3"/>
<circle cx="116.37" cy="26.295" r="10.8823" fill="white" fill-opacity="0.3"/>
<circle cx="146.134" cy="26.295" r="10.8823" fill="white" fill-opacity="0.3"/>
<circle cx="175.899" cy="26.295" r="10.8823" fill="white" fill-opacity="0.3"/>
<circle cx="205.664" cy="26.295" r="10.8823" fill="white" fill-opacity="0.3"/>
<circle cx="235.428" cy="26.295" r="10.8823" fill="white" fill-opacity="0.3"/>
<circle cx="265.193" cy="26.295" r="10.8823" fill="white" fill-opacity="0.3"/>
<circle cx="294.958" cy="26.295" r="10.8823" fill="white" fill-opacity="0.3"/>
<circle cx="324.722" cy="26.295" r="10.8823" fill="white" fill-opacity="0.3"/>
<circle cx="354.487" cy="26.295" r="10.8823" fill="white" fill-opacity="0.3"/>
<circle cx="12.1938" cy="56.0597" r="10.8823" fill="white" fill-opacity="0.3"/>
<circle cx="41.9585" cy="56.0597" r="10.8823" fill="white" fill-opacity="0.3"/>
<circle cx="71.7231" cy="56.0597" r="10.8823" fill="white" fill-opacity="0.3"/>
<circle cx="101.488" cy="56.0597" r="10.8823" fill="white" fill-opacity="0.3"/>
<circle cx="131.252" cy="56.0597" r="10.8823" fill="white" fill-opacity="0.3"/>
<circle cx="161.017" cy="56.0597" r="10.8823" fill="white" fill-opacity="0.3"/>
<circle cx="190.782" cy="56.0597" r="10.8823" fill="white" fill-opacity="0.3"/>
<circle cx="220.546" cy="56.0597" r="10.8823" fill="white" fill-opacity="0.3"/>
<circle cx="250.311" cy="56.0597" r="10.8823" fill="white" fill-opacity="0.3"/>
<circle cx="280.076" cy="56.0597" r="10.8823" fill="white" fill-opacity="0.3"/>
<circle cx="309.84" cy="56.0597" r="10.8823" fill="white" fill-opacity="0.3"/>
<circle cx="339.605" cy="56.0597" r="10.8823" fill="white" fill-opacity="0.3"/>
<circle cx="369.37" cy="56.0597" r="10.8823" fill="white" fill-opacity="0.3"/>
<circle cx="27.0757" cy="85.8243" r="10.8823" fill="white" fill-opacity="0.3"/>
<circle cx="56.8403" cy="85.8243" r="10.8823" fill="white" fill-opacity="0.3"/>
<circle cx="86.605" cy="85.8243" r="10.8823" fill="white" fill-opacity="0.3"/>
<circle cx="116.37" cy="85.8243" r="10.8823" fill="white" fill-opacity="0.3"/>
<circle cx="146.134" cy="85.8243" r="10.8823" fill="white" fill-opacity="0.3"/>
<circle cx="175.899" cy="85.8243" r="10.8823" fill="white" fill-opacity="0.3"/>
<circle cx="205.664" cy="85.8243" r="10.8823" fill="white" fill-opacity="0.3"/>
<circle cx="235.428" cy="85.8243" r="10.8823" fill="white" fill-opacity="0.3"/>
<circle cx="265.193" cy="85.8243" r="10.8823" fill="white" fill-opacity="0.3"/>
<circle cx="294.958" cy="85.8243" r="10.8823" fill="white" fill-opacity="0.3"/>
<circle cx="324.722" cy="85.8243" r="10.8823" fill="white" fill-opacity="0.3"/>
<circle cx="354.487" cy="85.8243" r="10.8823" fill="white" fill-opacity="0.3"/>
<circle cx="12.1938" cy="115.589" r="10.8823" fill="white" fill-opacity="0.3"/>
<circle cx="41.9585" cy="115.589" r="10.8823" fill="white" fill-opacity="0.3"/>
<circle cx="71.7231" cy="115.589" r="10.8823" fill="white" fill-opacity="0.3"/>
<circle cx="101.488" cy="115.589" r="10.8823" fill="white" fill-opacity="0.3"/>
<circle cx="131.252" cy="115.589" r="10.8823" fill="white" fill-opacity="0.3"/>
<circle cx="161.017" cy="115.589" r="10.8823" fill="white" fill-opacity="0.3"/>
<circle cx="190.782" cy="115.589" r="10.8823" fill="white" fill-opacity="0.3"/>
<circle cx="220.546" cy="115.589" r="10.8823" fill="white" fill-opacity="0.3"/>
<circle cx="250.311" cy="115.589" r="10.8823" fill="white" fill-opacity="0.3"/>
<circle cx="280.076" cy="115.589" r="10.8823" fill="white" fill-opacity="0.3"/>
<circle cx="309.84" cy="115.589" r="10.8823" fill="white" fill-opacity="0.3"/>
<circle cx="339.605" cy="115.589" r="10.8823" fill="white" fill-opacity="0.3"/>
<circle cx="369.37" cy="115.589" r="10.8823" fill="white" fill-opacity="0.3"/>
<circle cx="27.0757" cy="145.354" r="10.8823" fill="white" fill-opacity="0.3"/>
<circle cx="56.8403" cy="145.354" r="10.8823" fill="white" fill-opacity="0.3"/>
<circle cx="86.605" cy="145.354" r="10.8823" fill="white" fill-opacity="0.3"/>
<circle cx="116.37" cy="145.354" r="10.8823" fill="white" fill-opacity="0.3"/>
<circle cx="146.134" cy="145.354" r="10.8823" fill="white" fill-opacity="0.3"/>
<circle cx="175.899" cy="145.354" r="10.8823" fill="white" fill-opacity="0.3"/>
<circle cx="205.664" cy="145.354" r="10.8823" fill="white" fill-opacity="0.3"/>
<circle cx="235.428" cy="145.354" r="10.8823" fill="white" fill-opacity="0.3"/>
<circle cx="265.193" cy="145.354" r="10.8823" fill="white" fill-opacity="0.3"/>
<circle cx="294.958" cy="145.354" r="10.8823" fill="white" fill-opacity="0.3"/>
<circle cx="324.722" cy="145.354" r="10.8823" fill="white" fill-opacity="0.3"/>
<circle cx="354.487" cy="145.354" r="10.8823" fill="white" fill-opacity="0.3"/>
<circle cx="12.1938" cy="175.118" r="10.8823" fill="white" fill-opacity="0.3"/>
<circle cx="41.9585" cy="175.118" r="10.8823" fill="white" fill-opacity="0.3"/>
<circle cx="71.7231" cy="175.118" r="10.8823" fill="white" fill-opacity="0.3"/>
<circle cx="101.488" cy="175.118" r="10.8823" fill="white" fill-opacity="0.3"/>
<circle cx="131.252" cy="175.118" r="10.8823" fill="white" fill-opacity="0.3"/>
<circle cx="161.017" cy="175.118" r="10.8823" fill="white" fill-opacity="0.3"/>
<circle cx="190.782" cy="175.118" r="10.8823" fill="white" fill-opacity="0.3"/>
<circle cx="220.546" cy="175.118" r="10.8823" fill="white" fill-opacity="0.3"/>
<circle cx="250.311" cy="175.118" r="10.8823" fill="white" fill-opacity="0.3"/>
<circle cx="280.076" cy="175.118" r="10.8823" fill="white" fill-opacity="0.3"/>
<circle cx="309.84" cy="175.118" r="10.8823" fill="white" fill-opacity="0.3"/>
<circle cx="339.605" cy="175.118" r="10.8823" fill="white" fill-opacity="0.3"/>
<circle cx="369.37" cy="175.118" r="10.8823" fill="white" fill-opacity="0.3"/>
<circle cx="27.0757" cy="204.883" r="10.8823" fill="white" fill-opacity="0.3"/>
<circle cx="56.8403" cy="204.883" r="10.8823" fill="white" fill-opacity="0.3"/>
<circle cx="86.605" cy="204.883" r="10.8823" fill="white" fill-opacity="0.3"/>
<circle cx="116.37" cy="204.883" r="10.8823" fill="white" fill-opacity="0.3"/>
<circle cx="146.134" cy="204.883" r="10.8823" fill="white" fill-opacity="0.3"/>
<circle cx="175.899" cy="204.883" r="10.8823" fill="white" fill-opacity="0.3"/>
<circle cx="205.664" cy="204.883" r="10.8823" fill="white" fill-opacity="0.3"/>
<circle cx="235.428" cy="204.883" r="10.8823" fill="white" fill-opacity="0.3"/>
<circle cx="265.193" cy="204.883" r="10.8823" fill="white" fill-opacity="0.3"/>
<circle cx="294.958" cy="204.883" r="10.8823" fill="white" fill-opacity="0.3"/>
<circle cx="324.722" cy="204.883" r="10.8823" fill="white" fill-opacity="0.3"/>
<circle cx="354.487" cy="204.883" r="10.8823" fill="white" fill-opacity="0.3"/>
<circle cx="12.1938" cy="234.647" r="10.8823" fill="white" fill-opacity="0.3"/>
<circle cx="41.9585" cy="234.647" r="10.8823" fill="white" fill-opacity="0.3"/>
<circle cx="71.7231" cy="234.647" r="10.8823" fill="white" fill-opacity="0.3"/>
<circle cx="101.488" cy="234.647" r="10.8823" fill="white" fill-opacity="0.3"/>
<circle cx="131.252" cy="234.647" r="10.8823" fill="white" fill-opacity="0.3"/>
<circle cx="161.017" cy="234.647" r="10.8823" fill="white" fill-opacity="0.3"/>
<circle cx="190.782" cy="234.647" r="10.8823" fill="white" fill-opacity="0.3"/>
<circle cx="220.546" cy="234.647" r="10.8823" fill="white" fill-opacity="0.3"/>
<circle cx="250.311" cy="234.647" r="10.8823" fill="white" fill-opacity="0.3"/>
<circle cx="280.076" cy="234.647" r="10.8823" fill="white" fill-opacity="0.3"/>
<circle cx="309.84" cy="234.647" r="10.8823" fill="white" fill-opacity="0.3"/>
<circle cx="339.605" cy="234.647" r="10.8823" fill="white" fill-opacity="0.3"/>
<circle cx="369.37" cy="234.647" r="10.8823" fill="white" fill-opacity="0.3"/>
<circle cx="27.0757" cy="264.412" r="10.8823" fill="white" fill-opacity="0.3"/>
<circle cx="56.8403" cy="264.412" r="10.8823" fill="white" fill-opacity="0.3"/>
<circle cx="86.605" cy="264.412" r="10.8823" fill="white" fill-opacity="0.3"/>
<circle cx="116.37" cy="264.412" r="10.8823" fill="white" fill-opacity="0.3"/>
<circle cx="146.134" cy="264.412" r="10.8823" fill="white" fill-opacity="0.3"/>
<circle cx="175.899" cy="264.412" r="10.8823" fill="white" fill-opacity="0.3"/>
<circle cx="205.664" cy="264.412" r="10.8823" fill="white" fill-opacity="0.3"/>
<circle cx="235.428" cy="264.412" r="10.8823" fill="white" fill-opacity="0.3"/>
<circle cx="265.193" cy="264.412" r="10.8823" fill="white" fill-opacity="0.3"/>
<circle cx="294.958" cy="264.412" r="10.8823" fill="white" fill-opacity="0.3"/>
<circle cx="324.722" cy="264.412" r="10.8823" fill="white" fill-opacity="0.3"/>
<circle cx="354.487" cy="264.412" r="10.8823" fill="white" fill-opacity="0.3"/>
<circle cx="12.1938" cy="294.177" r="10.8823" fill="white" fill-opacity="0.3"/>
<circle cx="41.9585" cy="294.177" r="10.8823" fill="white" fill-opacity="0.3"/>
<circle cx="71.7231" cy="294.177" r="10.8823" fill="white" fill-opacity="0.3"/>
<circle cx="101.488" cy="294.177" r="10.8823" fill="white" fill-opacity="0.3"/>
<circle cx="131.252" cy="294.177" r="10.8823" fill="white" fill-opacity="0.3"/>
<circle cx="161.017" cy="294.177" r="10.8823" fill="white" fill-opacity="0.3"/>
<circle cx="190.782" cy="294.177" r="10.8823" fill="white" fill-opacity="0.3"/>
<circle cx="220.546" cy="294.177" r="10.8823" fill="white" fill-opacity="0.3"/>
<circle cx="250.311" cy="294.177" r="10.8823" fill="white" fill-opacity="0.3"/>
<circle cx="280.076" cy="294.177" r="10.8823" fill="white" fill-opacity="0.3"/>
<circle cx="309.84" cy="294.177" r="10.8823" fill="white" fill-opacity="0.3"/>
<circle cx="339.605" cy="294.177" r="10.8823" fill="white" fill-opacity="0.3"/>
<circle cx="369.37" cy="294.177" r="10.8823" fill="white" fill-opacity="0.3"/>
<circle cx="27.0757" cy="323.941" r="10.8823" fill="white" fill-opacity="0.3"/>
<circle cx="56.8403" cy="323.941" r="10.8823" fill="white" fill-opacity="0.3"/>
<circle cx="86.605" cy="323.941" r="10.8823" fill="white" fill-opacity="0.3"/>
<circle cx="116.37" cy="323.941" r="10.8823" fill="white" fill-opacity="0.3"/>
<circle cx="146.134" cy="323.941" r="10.8823" fill="white" fill-opacity="0.3"/>
<circle cx="175.899" cy="323.941" r="10.8823" fill="white" fill-opacity="0.3"/>
<circle cx="205.664" cy="323.941" r="10.8823" fill="white" fill-opacity="0.3"/>
<circle cx="235.428" cy="323.941" r="10.8823" fill="white" fill-opacity="0.3"/>
<circle cx="265.193" cy="323.941" r="10.8823" fill="white" fill-opacity="0.3"/>
<circle cx="294.958" cy="323.941" r="10.8823" fill="white" fill-opacity="0.3"/>
<circle cx="324.722" cy="323.941" r="10.8823" fill="white" fill-opacity="0.3"/>
<circle cx="354.487" cy="323.941" r="10.8823" fill="white" fill-opacity="0.3"/>
<circle cx="12.1938" cy="353.706" r="10.8823" fill="white" fill-opacity="0.3"/>
<circle cx="41.9585" cy="353.706" r="10.8823" fill="white" fill-opacity="0.3"/>
<circle cx="71.7231" cy="353.706" r="10.8823" fill="white" fill-opacity="0.3"/>
<circle cx="101.488" cy="353.706" r="10.8823" fill="white" fill-opacity="0.3"/>
<circle cx="131.252" cy="353.706" r="10.8823" fill="white" fill-opacity="0.3"/>
<circle cx="161.017" cy="353.706" r="10.8823" fill="white" fill-opacity="0.3"/>
<circle cx="190.782" cy="353.706" r="10.8823" fill="white" fill-opacity="0.3"/>
<circle cx="220.546" cy="353.706" r="10.8823" fill="white" fill-opacity="0.3"/>
<circle cx="250.311" cy="353.706" r="10.8823" fill="white" fill-opacity="0.3"/>
<circle cx="280.076" cy="353.706" r="10.8823" fill="white" fill-opacity="0.3"/>
<circle cx="309.84" cy="353.706" r="10.8823" fill="white" fill-opacity="0.3"/>
<circle cx="339.605" cy="353.706" r="10.8823" fill="white" fill-opacity="0.3"/>
<circle cx="369.37" cy="353.706" r="10.8823" fill="white" fill-opacity="0.3"/>
</g>
<defs>
<clipPath id="clip0">
<rect width="380" height="380" fill="white" transform="translate(0.78125)"/>
</clipPath>
</defs>
</svg>
